<?xml version="1.0" standalone="no"?>
<!DOCTYPE svg PUBLIC "-//W3C//DTD SVG 20010904//EN"
 "http://www.w3.org/TR/2001/REC-SVG-20010904/DTD/svg10.dtd">
<svg version="1.0" xmlns="http://www.w3.org/2000/svg"
 width="731.000000pt" height="731.000000pt" viewBox="0 0 731.000000 731.000000"
 preserveAspectRatio="xMidYMid meet">

<g transform="translate(0.000000,731.000000) scale(0.100000,-0.100000)"
fill="#000000" stroke="none">
<path d="M0 4721 l0 -2589 68 -7 c113 -10 225 -25 230 -30 3 -3 -4 -5 -15 -5
-12 0 -24 -6 -26 -12 -3 -8 -6 -5 -6 6 -1 15 -8 17 -46 14 -25 -2 -45 0 -45 4
0 14 -29 -4 -33 -20 -3 -12 -5 -10 -6 6 -1 17 -7 22 -30 22 -36 0 -61 -9 -61
-22 0 -5 -7 -16 -15 -24 -17 -17 -20 -70 -5 -79 6 -3 10 -11 10 -16 0 -6 -5
-7 -10 -4 -6 4 -10 -20 -10 -64 0 -54 3 -71 14 -71 8 0 16 -6 19 -12 6 -16 -9
-58 -21 -58 -5 0 -9 -6 -9 -13 0 -8 6 -14 13 -14 7 0 10 5 8 11 -2 6 11 16 30
22 28 9 33 8 29 -4 -3 -8 0 -18 8 -23 21 -13 29 -11 29 9 0 14 2 14 9 3 5 -8
7 -21 4 -29 -5 -12 -1 -11 20 2 19 13 27 14 33 5 5 -8 3 -9 -6 -4 -9 5 -10 2
-5 -14 4 -12 2 -21 -4 -21 -6 0 -13 -11 -17 -25 -3 -14 -10 -25 -16 -25 -5 0
-6 5 -3 10 3 6 1 10 -4 10 -6 0 -11 -11 -11 -25 0 -14 5 -25 10 -25 6 0 10 5
10 11 0 5 5 7 10 4 15 -10 12 -35 -5 -35 -8 0 -15 -5 -15 -11 0 -8 -12 -10
-36 -6 -25 4 -34 2 -31 -6 2 -7 16 -11 30 -10 15 1 26 -1 26 -5 -4 -23 4 -24
21 -2 11 14 19 18 18 10 -3 -16 14 -17 45 -5 14 6 20 2 24 -14 3 -11 9 -18 14
-15 5 3 9 -1 9 -8 0 -8 5 -6 11 5 5 9 7 23 3 30 -6 9 -5 9 8 0 8 -7 18 -10 21
-6 4 3 -1 12 -11 20 -16 12 -16 14 1 24 9 5 17 15 17 21 0 9 -3 9 -12 0 -7 -7
-18 -12 -26 -12 -12 0 -12 3 -2 15 7 8 18 15 25 15 8 0 16 6 18 13 3 6 6 2 6
-9 1 -12 8 -27 16 -34 13 -11 14 -10 8 5 -5 15 -3 17 11 12 14 -5 16 -3 11 12
-8 26 20 48 40 31 16 -13 20 -11 74 38 13 12 31 20 39 17 7 -3 29 -5 49 -5 28
0 34 -3 29 -15 -5 -14 -4 -14 16 0 27 18 38 19 38 3 0 -26 18 -39 54 -43 l38
-3 -6 36 c-3 21 -3 31 0 24 5 -10 9 -10 22 0 13 11 14 9 8 -17 -9 -34 -9 -36
-7 -52 1 -15 52 -7 64 10 6 8 7 6 3 -5 -3 -11 3 -23 17 -33 27 -19 32 -19 51
1 9 8 16 11 16 5 0 -15 26 -14 42 2 16 16 33 16 50 0 19 -20 26 -15 22 15 -2
16 -1 19 2 7 9 -30 15 -34 72 -39 47 -4 54 -2 68 20 18 26 37 33 28 9 -4 -8
-2 -15 4 -15 5 0 13 7 16 16 3 9 11 14 18 12 7 -3 23 8 35 23 24 28 29 44 16
52 -5 2 -3 2 4 1 25 -6 32 21 19 76 -8 30 -14 49 -15 41 -1 -8 -4 -11 -7 -8
-4 3 -15 2 -25 -4 -22 -11 -25 0 -6 20 10 11 8 11 -12 1 -13 -6 -21 -7 -17 -2
3 6 3 12 -1 15 -5 2 -2 2 5 0 9 -2 11 3 7 18 -4 11 -2 26 5 34 9 11 7 12 -9 8
-12 -3 -18 -9 -15 -14 3 -5 -2 -6 -10 -3 -13 5 -12 10 6 35 17 23 19 32 10 41
-9 9 -12 7 -12 -9 0 -25 -21 -35 -37 -17 -7 7 -8 14 -3 16 6 2 -10 3 -35 3
-28 0 -49 5 -54 14 -6 9 -11 10 -15 2 -4 -6 -3 -11 3 -11 6 0 8 -7 5 -15 -5
-11 -9 -12 -25 -2 -16 10 -21 9 -29 -3 -8 -12 -10 -12 -15 1 -5 15 -10 14 -43
-3 l-37 -18 -7 22 c-4 16 -6 18 -7 6 -1 -22 -21 -24 -21 -3 0 8 -4 15 -10 15
-5 0 -8 6 -6 13 1 6 1 9 -1 5 -3 -5 -15 -8 -29 -8 -17 0 -22 4 -18 15 4 10 0
15 -12 15 -11 0 -28 7 -38 15 -25 19 -36 19 -36 0 0 -8 5 -15 10 -15 14 0 12
-17 -2 -23 -8 -3 -14 5 -14 20 -1 13 -4 26 -5 27 -9 7 -69 15 -66 8 1 -4 -3
-7 -8 -7 -5 0 -9 4 -7 9 2 5 -23 6 -55 3 -58 -6 -58 -6 -24 9 28 12 57 13 170
4 200 -15 510 -39 885 -71 l249 -20 21 25 c16 19 151 96 169 96 2 0 9 -18 16
-40 11 -37 14 -40 39 -34 41 10 43 13 36 50 -7 39 2 41 70 21 l38 -12 44 -174
c55 -213 114 -399 165 -512 22 -48 39 -91 39 -97 0 -6 14 -41 31 -79 17 -37
35 -79 40 -92 5 -13 12 -21 15 -19 3 3 -7 31 -21 63 -30 68 -31 78 -7 73 12
-2 24 -26 39 -78 24 -84 30 -76 9 13 l-13 57 106 -6 c58 -4 107 -8 109 -9 2
-1 12 -40 23 -86 11 -46 22 -92 25 -101 5 -15 -1 -18 -39 -18 -28 0 -61 -9
-91 -25 -26 -14 -51 -23 -56 -20 -5 3 -14 21 -20 40 -13 39 -18 41 -46 20 -18
-14 -18 -15 5 -12 13 1 26 -3 28 -9 4 -12 -68 -54 -93 -54 -8 0 -18 -10 -23
-22 -13 -32 -91 -106 -91 -87 0 24 54 94 97 125 54 40 63 50 25 28 -18 -10
-49 -35 -69 -56 l-37 -37 -57 87 c-31 48 -92 128 -136 177 -217 248 -329 434
-368 610 -9 43 -13 51 -14 29 -2 -64 90 -274 172 -394 25 -36 43 -67 42 -68
-4 -5 -381 24 -575 43 -80 8 -199 17 -265 20 -193 9 -424 25 -510 35 -44 5
-193 19 -332 30 -139 11 -275 25 -304 30 -78 15 -99 13 -99 -9 0 -16 10 -20
63 -25 l64 -7 37 -312 c20 -172 38 -321 39 -331 2 -17 -5 -19 -78 -17 -44 1
-90 5 -102 8 -14 3 -23 1 -23 -6 0 -7 20 -11 50 -11 58 0 53 10 70 -155 6 -60
14 -123 17 -139 l6 -29 -72 7 c-48 5 -71 4 -71 -3 0 -6 12 -11 28 -11 39 0
466 -32 470 -35 2 -1 7 -45 12 -96 6 -52 12 -110 15 -130 l6 -35 -63 3 c-35 2
-143 11 -240 18 -205 17 -228 18 -228 6 0 -4 35 -11 77 -15 42 -3 80 -11 84
-17 4 -6 10 -47 13 -90 4 -44 12 -79 18 -79 10 0 4 102 -9 157 -5 22 -4 22 73
17 44 -3 202 -13 353 -23 296 -20 286 -17 297 -81 8 -54 26 -85 19 -35 -3 22
-8 52 -11 68 -7 34 -26 33 331 7 149 -11 282 -20 296 -20 24 0 28 -5 37 -47
l10 -48 1 45 1 45 118 -7 c192 -11 444 -29 488 -34 30 -3 44 -11 52 -27 l11
-22 0 23 c1 12 7 22 14 22 6 0 138 -9 292 -20 154 -11 321 -19 370 -18 76 1
63 3 -85 14 -96 7 -182 13 -191 13 -18 1 -43 91 -55 201 l-6 56 98 -8 c55 -4
169 -12 254 -18 85 -6 189 -13 231 -17 l76 -6 12 -66 c24 -129 34 -171 41
-171 4 0 1 30 -6 68 -8 37 -17 90 -20 118 l-7 52 44 -4 c24 -2 165 -13 313
-24 148 -12 272 -23 276 -25 4 -3 13 -35 19 -72 19 -105 21 -113 31 -113 5 0
7 6 5 13 -10 26 -31 168 -26 172 6 3 164 -8 491 -34 69 -6 135 -11 147 -11 19
0 23 -9 33 -70 6 -38 16 -70 22 -70 6 0 8 6 5 14 -10 24 -19 104 -14 113 3 5
45 5 94 1 48 -3 194 -14 323 -23 129 -10 237 -19 238 -20 2 -2 6 -22 9 -44 3
-23 10 -41 15 -41 6 0 8 18 3 45 l-6 45 38 -5 c21 -3 108 -10 193 -16 359 -24
370 -25 370 -55 0 -8 5 -14 11 -14 7 0 9 9 6 21 -5 20 -3 20 76 14 45 -4 145
-13 222 -21 152 -15 431 -18 340 -3 -27 4 -111 11 -185 14 -121 5 -259 15
-615 45 -60 6 -119 10 -130 10 -18 0 -23 14 -44 133 -24 134 -47 214 -36 127
3 -25 10 -67 16 -95 5 -27 12 -76 16 -107 l5 -58 -43 5 c-47 5 -453 33 -531
37 l-47 2 -11 70 c-7 39 -20 111 -31 161 -10 49 -16 91 -14 93 2 2 68 -1 147
-7 79 -6 346 -27 593 -46 248 -19 468 -37 490 -40 l41 -6 33 -142 c38 -166 43
-181 48 -151 2 12 -10 76 -26 142 -17 66 -31 128 -31 137 0 13 10 15 63 10 34
-3 177 -15 317 -26 140 -11 256 -21 257 -22 1 -1 4 -14 8 -30 5 -18 3 -27 -5
-27 -6 0 -9 4 -6 8 2 4 1 14 -5 22 -6 11 -9 12 -9 2 0 -7 -4 -10 -10 -7 -5 3
-10 -3 -10 -14 0 -12 -5 -21 -11 -21 -5 0 -7 5 -3 12 4 6 3 8 -3 5 -6 -4 -8
-17 -6 -30 4 -20 -3 -27 -47 -50 -33 -17 -60 -25 -75 -21 -17 4 -26 0 -35 -16
-12 -22 -11 -22 24 -16 27 5 38 3 42 -8 7 -17 55 -37 104 -43 19 -2 42 -12 50
-22 13 -15 18 -15 28 -5 14 15 16 28 4 20 -5 -3 -8 9 -8 27 0 18 -3 55 -7 82
-4 31 -4 42 2 30 5 -11 11 -40 15 -65 11 -72 28 -130 38 -130 9 0 6 39 -8 88
-2 9 3 1 12 -18 23 -51 45 -74 57 -58 7 10 10 10 14 1 3 -10 43 -13 149 -13
l145 0 -3 32 c-2 23 -10 36 -25 43 -13 5 -23 18 -23 27 0 10 -10 20 -25 24
-14 3 -25 10 -25 15 0 5 -40 9 -90 9 -75 0 -88 2 -84 15 4 10 0 15 -10 15 -9
0 -21 11 -26 25 -7 18 -14 23 -26 18 -13 -5 -16 -3 -11 10 4 10 1 17 -6 17 -7
0 -13 9 -13 20 0 11 5 20 11 20 5 0 91 -7 190 -15 99 -8 183 -15 188 -15 4 0
7 7 7 15 0 11 -13 15 -53 15 -54 0 -54 0 -65 38 -18 64 -35 162 -28 169 3 3 6
-1 6 -10 0 -9 20 -25 45 -38 56 -28 82 -56 88 -94 2 -16 5 36 6 118 1 156 -4
171 -44 127 -10 -11 -23 -20 -29 -20 -6 0 -28 -16 -48 -36 -21 -19 -38 -32
-38 -28 0 3 -14 66 -30 138 -17 72 -33 142 -36 155 l-5 23 108 -7 c62 -4 111
-12 115 -19 4 -6 8 6 8 26 0 44 26 38 -310 68 -124 12 -259 25 -300 30 -164
21 -370 41 -474 46 -61 2 -160 11 -220 19 -61 8 -140 15 -176 15 -36 0 -103 4
-150 10 -47 5 -166 17 -265 26 -227 21 -222 20 -191 64 12 19 29 52 35 73 7
20 16 35 21 32 9 -6 20 19 20 47 0 17 -2 18 -15 8 -12 -10 -19 -10 -27 -2 -7
7 -24 12 -38 12 -15 0 -35 9 -45 20 -39 43 -147 30 -205 -24 -46 -44 -221 -70
-330 -51 -40 7 -42 9 -20 16 l25 7 -23 7 c-17 6 -20 10 -11 16 18 11 -8 60
-27 52 -10 -3 -12 0 -8 10 7 18 -30 41 -52 33 -8 -3 -14 -19 -14 -38 l-1 -33
-30 35 c-26 31 -31 33 -50 22 -19 -12 -31 -3 -147 106 -163 153 -392 388 -392
402 0 5 19 10 43 10 23 0 37 4 31 8 -6 4 -14 14 -17 22 -4 12 -6 11 -6 -2 -1
-21 -51 -26 -51 -5 0 9 -2 9 -9 -1 -6 -10 -22 6 -58 55 -109 150 -133 189
-142 238 -5 27 -17 55 -27 62 -16 12 -17 21 -6 127 7 62 12 129 12 148 0 44
11 48 129 48 47 0 127 8 179 17 91 16 93 17 67 31 -55 28 -210 14 -255 -23
-25 -21 -112 -24 -133 -5 -16 16 -13 18 60 29 250 37 390 53 483 54 92 2 112
-1 162 -23 32 -14 58 -28 58 -31 0 -19 -38 -16 -82 6 -57 29 -84 31 -148 11
l-45 -15 37 0 c27 -1 47 -10 74 -33 l36 -32 -7 -146 c-10 -213 -7 -204 -95
-254 -84 -47 -88 -55 -89 -187 -1 -36 -4 -87 -7 -112 -6 -42 -9 -46 -50 -62
-24 -9 -44 -20 -44 -24 0 -8 109 -23 290 -41 58 -6 188 -19 290 -30 102 -11
340 -35 530 -55 190 -19 410 -41 490 -50 80 -8 210 -22 290 -30 80 -8 210 -21
290 -30 80 -8 190 -20 245 -25 200 -20 302 -30 385 -39 278 -32 465 -51 486
-51 l24 0 0 2945 0 2945 -3655 0 -3655 0 0 -2589z m4163 2528 c-3 -10 -9 -19
-14 -19 -11 0 -12 21 -3 45 9 23 23 0 17 -26z m-3253 5 c0 -16 -16 -19 -25 -4
-8 13 4 32 16 25 5 -4 9 -13 9 -21z m-795 -24 c9 -14 -4 -52 -16 -45 -12 8
-12 55 0 55 6 0 13 -5 16 -10z m2625 -34 c0 -3 -4 -8 -10 -11 -5 -3 -10 -1
-10 4 0 6 5 11 10 11 6 0 10 -2 10 -4z m-975 -36 c3 -5 -1 -10 -9 -10 -8 0
-18 5 -21 10 -3 6 1 10 9 10 8 0 18 -4 21 -10z m2825 -62 c0 -10 -7 -18 -15
-18 -15 0 -21 40 -8 53 9 9 23 -13 23 -35z m-2722 -32 c9 -20 8 -25 -9 -29
-16 -4 -19 0 -19 24 0 35 13 38 28 5z m2207 -36 c-3 -5 -10 -10 -16 -10 -5 0
-9 5 -9 10 0 6 7 10 16 10 8 0 12 -4 9 -10z m455 -45 c-7 -9 -15 -13 -17 -11
-7 7 7 26 19 26 6 0 6 -6 -2 -15z m2142 -15 c4 -24 1 -30 -14 -30 -20 0 -21 4
-12 38 9 31 21 28 26 -8z m-438 4 c9 -24 7 -31 -10 -38 -25 -10 -33 2 -21 29
14 29 22 31 31 9z m-734 -38 c0 -3 -4 -8 -10 -11 -5 -3 -10 -1 -10 4 0 6 5 11
10 11 6 0 10 -2 10 -4z m-4696 -51 c3 -8 1 -15 -4 -15 -6 0 -10 7 -10 15 0 8
2 15 4 15 2 0 6 -7 10 -15z m234 -7 c-4 -27 -28 -36 -28 -10 0 20 8 32 22 32
5 0 8 -10 6 -22z m2162 -24 c32 -22 39 -31 34 -48 -11 -36 -20 -38 -62 -17
-40 20 -40 21 -29 56 5 19 12 35 14 35 2 0 21 -12 43 -26z m318 -5 c-10 -7 -9
-9 5 -9 19 0 20 -2 11 -24 -13 -33 -34 -17 -34 25 0 36 2 40 15 29 13 -11 13
-15 3 -21z m-2988 -11 c0 -19 2 -20 10 -8 11 17 13 10 4 -14 -3 -9 -9 -16 -13
-16 -11 0 -31 47 -24 54 13 13 23 5 23 -16z m4450 -3 c10 -12 10 -21 2 -40 -7
-14 -16 -25 -21 -25 -18 0 -32 29 -25 54 7 29 25 34 44 11z m-2454 -31 c4 -17
2 -29 -7 -35 -23 -14 -29 -10 -29 19 0 48 25 59 36 16z m-1689 1 c9 -25 -4
-29 -17 -6 -7 15 -7 21 0 21 6 0 13 -7 17 -15z m1478 -5 c3 -5 1 -10 -4 -10
-6 0 -11 5 -11 10 0 6 2 10 4 10 3 0 8 -4 11 -10z m-2040 -34 c12 -29 12 -96
-1 -96 -5 0 -54 50 -54 56 0 11 30 74 35 74 3 0 12 -15 20 -34z m1451 -3 c-7
-7 -26 7 -26 19 0 6 6 6 15 -2 9 -7 13 -15 11 -17z m1734 -3 c0 -5 -4 -10 -10
-10 -5 0 -10 5 -10 10 0 6 5 10 10 10 6 0 10 -4 10 -10z m-1415 -51 c8 -25 3
-31 -19 -23 -20 8 -21 44 -2 44 8 0 18 -9 21 -21z m1335 1 c0 -5 -4 -10 -10
-10 -5 0 -10 5 -10 10 0 6 5 10 10 10 6 0 10 -4 10 -10z m1940 -54 c0 -3 -4
-8 -10 -11 -5 -3 -10 -1 -10 4 0 6 5 11 10 11 6 0 10 -2 10 -4z m1040 -16 c0
-5 -4 -10 -10 -10 -5 0 -10 5 -10 10 0 6 5 10 10 10 6 0 10 -4 10 -10z m-4624
-117 c-7 -18 -31 -16 -46 2 -9 10 -9 15 -1 15 6 0 11 13 11 28 0 16 3 32 7 36
9 9 35 -64 29 -81z m4932 32 c5 -25 -18 -65 -38 -65 -33 0 -42 25 -26 64 13
31 18 35 38 27 13 -4 25 -16 26 -26z m-5874 -27 c3 -15 1 -30 -5 -33 -16 -10
-21 0 -25 47 -3 36 -2 40 10 28 7 -8 16 -27 20 -42z m1781 22 c3 -5 -1 -10 -9
-10 -9 0 -16 5 -16 10 0 6 4 10 9 10 6 0 13 -4 16 -10z m-2278 -92 c-3 -7 -5
-2 -5 12 0 14 2 19 5 13 2 -7 2 -19 0 -25z m3053 12 c0 -5 -4 -10 -10 -10 -5
0 -10 5 -10 10 0 6 5 10 10 10 6 0 10 -4 10 -10z m1275 -20 c3 -5 3 -15 -1
-21 -6 -11 -23 6 -24 24 0 10 18 9 25 -3z m-1473 -92 c-7 -7 -12 -8 -12 -2 0
14 12 26 19 19 2 -3 -1 -11 -7 -17z m940 -38 c19 0 22 -8 12 -34 -8 -22 -27
-20 -49 4 -20 22 -13 62 7 42 7 -7 20 -12 30 -12z m863 -40 c7 -23 -2 -43 -16
-35 -12 8 -12 55 0 55 5 0 12 -9 16 -20z m-4447 -25 c3 -25 2 -27 -12 -16 -19
16 -22 55 -3 49 6 -3 14 -17 15 -33z m1815 17 c-2 -6 3 -9 11 -6 8 3 17 0 21
-6 11 -18 0 -22 -28 -9 -31 14 -46 42 -19 37 9 -2 16 -9 15 -16z m4740 -37
c22 -47 22 -59 -7 -92 l-25 -28 -32 32 -32 32 34 45 c19 25 37 46 40 46 3 0
13 -16 22 -35z m-2338 -55 c3 -5 1 -10 -4 -10 -6 0 -11 5 -11 10 0 6 2 10 4
10 3 0 8 -4 11 -10z m735 -10 c11 -7 12 -12 3 -21 -16 -16 -44 -4 -37 16 7 17
13 18 34 5z m-4442 -73 c17 -16 22 -31 22 -69 0 -54 -10 -59 -45 -23 -20 19
-25 34 -25 75 0 55 4 56 48 17z m1852 -6 c0 -3 -4 -13 -10 -21 -7 -12 -12 -12
-29 4 -16 15 -18 23 -10 38 10 19 12 19 30 2 10 -9 19 -20 19 -23z m794 24
c-4 -8 -10 -15 -15 -15 -4 0 -6 7 -3 15 4 8 10 15 15 15 4 0 6 -7 3 -15z
m3104 -50 c-3 -3 -9 2 -12 12 -6 14 -5 15 5 6 7 -7 10 -15 7 -18z m-2030 -16
c13 -8 17 -20 14 -40 -10 -66 -48 -36 -43 34 1 20 5 21 29 6z m1492 -42 c21
-37 2 -55 -33 -32 -23 14 -24 20 -15 41 14 29 28 27 48 -9z m-4106 -47 c18
-46 19 -50 7 -68 -6 -10 -13 -11 -34 -1 -15 7 -27 17 -27 23 0 24 21 86 29 86
5 0 16 -18 25 -40z m2746 -30 c0 -5 -4 -10 -10 -10 -5 0 -10 5 -10 10 0 6 5
10 10 10 6 0 10 -4 10 -10z m-1717 -40 c23 -39 26 -95 5 -88 -21 7 -51 76 -44
102 3 14 8 26 11 26 2 0 15 -18 28 -40z m-723 -30 c0 -5 -2 -10 -4 -10 -3 0
-8 5 -11 10 -3 6 -1 10 4 10 6 0 11 -4 11 -10z m1034 -41 c-11 -18 -32 -9 -27
11 4 16 8 18 19 9 8 -6 11 -15 8 -20z m3356 -5 c0 -13 -6 -24 -13 -24 -22 0
-26 11 -15 36 13 28 28 22 28 -12z m435 16 c3 -5 1 -10 -4 -10 -6 0 -11 5 -11
10 0 6 2 10 4 10 3 0 8 -4 11 -10z m-5331 -13 c27 -20 18 -78 -14 -94 -34 -17
-41 -6 -33 55 6 54 16 62 47 39z m3813 -9 c-3 -8 -6 -5 -6 6 -1 11 2 17 5 13
3 -3 4 -12 1 -19z m-1543 -9 c-3 -5 -10 -7 -15 -3 -5 3 -7 10 -3 15 3 5 10 7
15 3 5 -3 7 -10 3 -15z m1011 1 c3 -5 1 -10 -4 -10 -6 0 -11 5 -11 10 0 6 2
10 4 10 3 0 8 -4 11 -10z m-3715 -116 c0 -8 -4 -12 -10 -9 -5 3 -10 10 -10 16
0 5 5 9 10 9 6 0 10 -7 10 -16z m1100 -3 c0 -23 -16 -36 -25 -21 -9 14 1 40
15 40 5 0 10 -9 10 -19z m1240 -21 c0 -5 -4 -10 -10 -10 -5 0 -10 5 -10 10 0
6 5 10 10 10 6 0 10 -4 10 -10z m2670 -10 c0 -5 -5 -10 -11 -10 -5 0 -7 5 -4
10 3 6 8 10 11 10 2 0 4 -4 4 -10z m-1650 -24 c0 -8 -6 -19 -14 -25 -20 -16
-30 3 -16 29 11 21 30 19 30 -4z m650 14 c0 -5 -4 -10 -10 -10 -5 0 -10 5 -10
10 0 6 5 10 10 10 6 0 10 -4 10 -10z m1355 0 c3 -5 1 -10 -4 -10 -6 0 -11 5
-11 10 0 6 2 10 4 10 3 0 8 -4 11 -10z m-5311 -16 c10 -26 7 -34 -12 -34 -26
0 -33 10 -21 31 12 23 25 24 33 3z m1404 -39 c-6 -14 -13 -23 -16 -21 -7 7 9
46 18 46 5 0 4 -11 -2 -25z m1176 -51 c9 -24 7 -31 -9 -38 -11 -4 -15 2 -15
24 0 32 14 40 24 14z m-2030 -30 c5 -14 4 -15 -9 -4 -17 14 -19 20 -6 20 5 0
12 -7 15 -16z m2726 -28 c0 -3 -7 -3 -15 0 -8 4 -15 13 -15 21 0 12 2 12 15
-1 8 -8 15 -17 15 -20z m680 -81 c0 -28 -24 -34 -34 -9 -8 20 1 34 20 34 8 0
14 -10 14 -25z m-5084 -6 c41 -25 35 -40 -12 -37 -40 3 -48 10 -39 38 8 25 10
25 51 -1z m2064 11 c0 -5 -5 -10 -11 -10 -5 0 -7 5 -4 10 3 6 8 10 11 10 2 0
4 -4 4 -10z m70 0 c0 -5 -4 -10 -10 -10 -5 0 -10 5 -10 10 0 6 5 10 10 10 6 0
10 -4 10 -10z m1150 0 c0 -5 -2 -10 -4 -10 -3 0 -8 5 -11 10 -3 6 -1 10 4 10
6 0 11 -4 11 -10z m1130 0 c0 -5 -4 -10 -10 -10 -5 0 -10 5 -10 10 0 6 5 10
10 10 6 0 10 -4 10 -10z m-1080 -30 c-8 -5 -17 -7 -19 -4 -3 3 1 9 9 14 8 5
17 7 19 4 3 -3 -1 -9 -9 -14z m3229 -21 c16 -47 14 -74 -9 -94 -23 -21 -22
-21 -44 22 -20 41 -20 43 6 76 28 35 34 34 47 -4z m-2549 -4 c0 -8 -4 -15 -10
-15 -5 0 -10 7 -10 15 0 8 5 15 10 15 6 0 10 -7 10 -15z m-640 -30 c-7 -9 -15
-13 -17 -11 -7 7 7 26 19 26 6 0 6 -6 -2 -15z m950 -49 c0 -11 -19 -15 -25 -6
-3 5 1 10 9 10 9 0 16 -2 16 -4z m-1318 -38 c-7 -7 -12 -8 -12 -2 0 14 12 26
19 19 2 -3 -1 -11 -7 -17z m1168 8 c0 -2 -7 -6 -15 -10 -8 -3 -15 -1 -15 4 0
6 7 10 15 10 8 0 15 -2 15 -4z m69 -5 c9 -6 10 -11 2 -15 -6 -4 -11 -2 -11 4
0 6 -4 8 -10 5 -5 -3 -10 -1 -10 4 0 13 10 14 29 2z m1781 -21 c0 -5 -2 -10
-4 -10 -3 0 -8 5 -11 10 -3 6 -1 10 4 10 6 0 11 -4 11 -10z m-5984 -51 c10 -8
7 -79 -5 -79 -3 0 -18 11 -32 24 -20 17 -26 30 -22 50 5 22 9 25 27 20 11 -4
26 -10 32 -15z m4564 17 c0 -11 -19 -15 -25 -6 -3 5 1 10 9 10 9 0 16 -2 16
-4z m-3450 -61 c16 -25 20 -43 15 -65 -8 -36 -15 -37 -44 -6 -21 23 -22 39 -5
94 5 18 10 15 34 -23z m1569 -19 c12 -18 21 -47 21 -65 0 -26 -4 -31 -24 -31
-13 0 -28 6 -33 13 -11 14 -5 117 7 117 5 0 18 -15 29 -34z m-1219 14 c0 -5
-4 -10 -10 -10 -5 0 -10 5 -10 10 0 6 5 10 10 10 6 0 10 -4 10 -10z m4000 -60
c0 -31 -16 -41 -26 -15 -8 19 2 45 16 45 5 0 10 -13 10 -30z m-3500 -21 c0
-11 -7 -19 -15 -19 -10 0 -15 10 -15 31 0 27 2 30 15 19 8 -7 15 -21 15 -31z
m4177 -15 c-3 -3 -12 -4 -19 -1 -8 3 -5 6 6 6 11 1 17 -2 13 -5z m-3908 -69
c54 -28 45 -55 -19 -55 -34 0 -44 13 -36 46 7 28 16 29 55 9z m-1488 -22 c13
-14 18 -23 11 -19 -7 4 -15 1 -18 -8 -9 -24 -24 -9 -24 25 0 16 1 29 3 29 2 0
14 -12 28 -27z m2788 9 c12 -23 -2 -47 -23 -39 -24 10 -20 57 5 57 5 0 13 -8
18 -18z m1856 8 c-3 -5 -10 -10 -16 -10 -5 0 -9 5 -9 10 0 6 7 10 16 10 8 0
12 -4 9 -10z m-4715 -27 c-1 -14 -27 -43 -39 -43 -14 0 -14 6 1 30 12 19 38
28 38 13z m3566 -28 c15 -23 12 -65 -5 -65 -25 0 -41 27 -35 58 8 38 18 40 40
7z m-4476 -20 c20 -22 22 -27 10 -55 -14 -35 -18 -36 -48 -14 -15 10 -22 25
-22 48 0 53 22 61 60 21z m3100 -25 c0 -5 -4 -10 -10 -10 -5 0 -10 5 -10 10 0
6 5 10 10 10 6 0 10 -4 10 -10z m-823 -32 c16 -21 25 -86 13 -93 -19 -12 -50
26 -50 60 0 44 17 59 37 33z m713 -47 c0 -5 3 -16 6 -25 4 -12 0 -16 -15 -16
-16 0 -21 6 -21 25 0 16 6 25 15 25 8 0 15 -4 15 -9z m2230 -1 c0 -5 -4 -10
-10 -10 -5 0 -10 5 -10 10 0 6 5 10 10 10 6 0 10 -4 10 -10z m789 -52 c-22
-41 -49 -4 -29 40 l12 27 13 -25 c9 -17 10 -30 4 -42z m-2209 36 c0 -8 -5 -12
-10 -9 -6 4 -8 11 -5 16 9 14 15 11 15 -7z m380 -73 c0 -5 -7 -11 -15 -15 -15
-5 -20 5 -8 17 9 10 23 9 23 -2z m35 0 c3 -5 1 -12 -5 -16 -5 -3 -10 1 -10 9
0 18 6 21 15 7z m721 -28 c-10 -10 -19 5 -10 18 6 11 8 11 12 0 2 -7 1 -15 -2
-18z m1791 -35 c-3 -8 -6 -5 -6 6 -1 11 2 17 5 13 3 -3 4 -12 1 -19z m-4632 2
c-3 -5 -11 -10 -16 -10 -6 0 -7 5 -4 10 3 6 11 10 16 10 6 0 7 -4 4 -10z m695
-81 c0 -10 -5 -21 -10 -24 -15 -9 -40 13 -34 31 16 52 14 51 30 30 8 -11 14
-28 14 -37z m-1396 -54 c-13 -49 -24 -103 -24 -118 0 -16 -4 -26 -10 -22 -12
7 -3 86 15 140 45 128 53 128 19 0z m5056 70 c0 -8 -4 -15 -9 -15 -13 0 -22
16 -14 24 11 11 23 6 23 -9z m-3730 -26 c0 -6 -4 -7 -10 -4 -5 3 -10 11 -10
16 0 6 5 7 10 4 6 -3 10 -11 10 -16z m2180 -11 c0 -19 -2 -20 -10 -8 -13 19
-13 30 0 30 6 0 10 -10 10 -22z m710 2 c0 -5 -4 -10 -10 -10 -5 0 -10 5 -10
10 0 6 5 10 10 10 6 0 10 -4 10 -10z m-3838 -40 c45 -39 118 -162 132 -224 l7
-28 -42 36 c-51 43 -76 45 -113 7 -22 -23 -24 -30 -12 -34 11 -5 13 -13 6 -36
-12 -43 -3 -67 31 -81 36 -15 56 -8 71 26 10 22 9 32 -7 62 -11 20 -31 42 -45
49 l-25 13 29 0 c20 0 40 -12 68 -40 33 -33 39 -44 34 -66 -4 -15 -3 -23 3
-20 5 3 12 -36 16 -93 7 -93 5 -103 -18 -154 -14 -30 -53 -84 -88 -121 l-64
-68 -95 17 c-56 10 -123 30 -165 49 -58 27 -74 40 -94 76 -13 23 -20 41 -15
38 122 -59 174 -72 190 -47 4 7 0 9 -14 5 -53 -17 -146 53 -193 146 -62 123
-70 156 -67 284 3 80 8 119 16 122 7 2 12 12 12 22 0 10 4 21 9 24 9 6 -1 -53
-13 -72 -3 -5 4 -45 15 -88 12 -44 26 -98 32 -121 6 -24 17 -45 25 -48 7 -2
10 0 7 5 -3 5 2 24 12 42 l17 33 11 -50 c10 -48 13 -50 47 -53 41 -3 68 17 68
51 0 26 -35 87 -50 87 -15 0 -12 17 5 24 8 3 21 -1 29 -9 19 -19 26 -19 26 0
0 24 -48 30 -89 10 -20 -10 -39 -18 -43 -17 -5 1 -8 -4 -8 -11 0 -6 -9 -23
-20 -37 l-20 -25 -1 25 c-2 39 -1 60 7 125 l8 60 7 -40 c6 -37 6 -36 8 20 1
34 10 77 20 100 l18 40 7 -30 c4 -16 11 -45 16 -64 7 -28 5 -36 -13 -55 -13
-11 -18 -18 -13 -13 6 4 20 7 33 7 15 0 27 8 32 22 7 20 8 20 14 -8 3 -17 26
-58 51 -92 25 -34 46 -67 46 -72 0 -26 18 -4 43 55 23 54 28 80 28 150 0 47 2
85 4 85 5 0 45 -66 45 -74 0 -3 -7 -6 -15 -6 -8 0 -15 -7 -15 -15 0 -18 16
-20 26 -4 5 8 13 4 26 -12 14 -16 18 -18 14 -6 -4 12 0 17 15 17 11 0 17 5 14
10 -3 6 -14 10 -23 10 -11 0 -29 23 -48 60 -17 33 -28 60 -24 60 4 0 28 -18
52 -40z m1526 0 c25 -32 22 -50 -9 -50 -51 0 -66 29 -36 68 13 17 19 15 45
-18z m1211 -36 c-14 -17 -39 -7 -39 15 0 27 12 33 32 15 13 -13 15 -20 7 -30z
m-3214 -24 c-4 -28 -9 -49 -12 -46 -3 2 -2 28 2 56 4 28 9 49 12 46 3 -2 2
-28 -2 -56z m294 -85 c8 -3 18 0 23 7 6 10 8 9 8 -4 0 -23 -11 -48 -21 -48
-16 0 -48 77 -53 131 l-6 54 17 -67 c10 -37 24 -70 32 -73z m3946 125 c3 -5 1
-10 -4 -10 -6 0 -11 5 -11 10 0 6 2 10 4 10 3 0 8 -4 11 -10z m-4395 -20 c-13
-9 -13 -10 0 -10 9 -1 6 -5 -7 -10 -14 -6 -23 -18 -23 -32 -1 -20 -48 -133
-49 -117 -1 4 8 34 19 68 20 64 57 127 68 116 4 -3 0 -10 -8 -15z m2674 -15
c-4 -8 -18 -18 -33 -21 -14 -4 -39 -13 -54 -21 -15 -8 -32 -11 -38 -7 -7 4 12
19 42 34 63 32 91 37 83 15z m-2552 -47 c-8 -91 -42 -104 -42 -17 0 27 5 49
10 49 6 0 10 -6 11 -12 0 -7 4 -3 9 10 14 34 17 27 12 -30z m3448 42 c0 -5 -4
-10 -10 -10 -5 0 -10 5 -10 10 0 6 5 10 10 10 6 0 10 -4 10 -10z m-3501 -102
c20 -140 62 -260 123 -353 18 -26 16 -26 -11 5 -63 72 -118 220 -128 347 -3
46 -4 83 -1 83 3 0 11 -37 17 -82z m5256 52 c3 -5 -1 -10 -9 -10 -9 0 -16 5
-16 10 0 6 4 10 9 10 6 0 13 -4 16 -10z m-1525 -22 c0 -6 -6 -5 -15 2 -8 7
-15 14 -15 16 0 2 7 1 15 -2 8 -4 15 -11 15 -16z m-4290 -81 c0 -55 -14 -65
-44 -31 -29 33 -30 39 -14 84 l11 33 24 -27 c14 -16 23 -40 23 -59z m-745 63
c3 -5 1 -10 -4 -10 -6 0 -11 5 -11 10 0 6 2 10 4 10 3 0 8 -4 11 -10z m6055
-20 c0 -11 -6 -20 -14 -20 -18 0 -29 16 -21 30 11 18 35 11 35 -10z m-1224
-17 c-10 -10 -19 5 -10 18 6 11 8 11 12 0 2 -7 1 -15 -2 -18z m1902 -48 c-1
-14 -8 -25 -15 -25 -14 0 -17 19 -7 44 9 23 24 9 22 -19z m-6313 -16 c8 -34 3
-44 -18 -36 -9 3 -12 16 -9 36 6 40 18 40 27 0z m3530 21 c3 -5 1 -10 -4 -10
-6 0 -11 5 -11 10 0 6 2 10 4 10 3 0 8 -4 11 -10z m2860 0 c3 -5 1 -10 -4 -10
-6 0 -11 5 -11 10 0 6 2 10 4 10 3 0 8 -4 11 -10z m-5681 -48 c-8 -18 -20 -32
-25 -32 -5 0 1 15 13 34 28 42 34 41 12 -2z m2876 14 c0 -3 -4 -8 -10 -11 -5
-3 -10 -1 -10 4 0 6 5 11 10 11 6 0 10 -2 10 -4z m-1376 -25 c12 -13 15 -27
10 -45 -7 -31 -14 -32 -44 -8 -17 13 -20 24 -15 45 8 32 25 35 49 8z m2556
-33 c0 -22 -9 -23 -38 -2 -18 12 -20 19 -11 35 10 20 11 20 30 3 10 -9 19 -25
19 -36z m-3308 27 c0 -5 -5 -11 -11 -13 -6 -2 -11 4 -11 13 0 9 5 15 11 13 6
-2 11 -8 11 -13z m1204 -22 c-3 -7 0 -13 7 -13 7 0 4 -5 -6 -11 -25 -14 -37
-1 -30 34 4 22 8 25 20 16 7 -7 12 -18 9 -26z m-1515 -6 c-13 -13 -26 -3 -16
12 3 6 11 8 17 5 6 -4 6 -10 -1 -17z m5553 -15 c6 -22 5 -41 -2 -58 -10 -21
-15 -23 -32 -14 -35 19 -41 43 -18 78 24 39 39 37 52 -6z m-2684 13 c0 -8 -7
-15 -15 -15 -8 0 -15 7 -15 15 0 8 7 15 15 15 8 0 15 -7 15 -15z m-2546 -7
c-5 -9 -2 -8 10 1 11 9 20 11 27 4 16 -16 -12 -32 -39 -22 -22 8 -22 29 -1 29
6 0 7 -6 3 -12z m3949 -24 c-4 -10 -8 -10 -18 -1 -9 9 -10 16 -2 25 12 16 28
-3 20 -24z m-4207 -10 c-22 -16 -45 -18 -65 -5 -25 16 -1 33 36 26 27 -5 33
-3 28 7 -7 11 -5 11 6 0 12 -11 11 -15 -5 -28z m2374 22 c0 -3 -4 -8 -10 -11
-5 -3 -10 -1 -10 4 0 6 5 11 10 11 6 0 10 -2 10 -4z m-2687 -26 c19 -23 23
-40 5 -22 -15 15 -38 16 -38 1 0 -5 5 -7 10 -4 6 3 10 2 10 -4 0 -5 8 -11 18
-13 11 -2 17 -13 17 -33 0 -21 5 -30 17 -30 23 0 32 -11 24 -30 -5 -14 -9 -14
-35 -1 -39 21 -81 72 -81 101 0 55 23 70 53 35z m2182 3 c17 -23 2 -53 -25
-53 -22 0 -26 20 -10 51 13 23 19 24 35 2z m-1255 0 c-1 -5 -7 -19 -14 -32
-13 -24 -14 -24 -25 -3 -17 32 -13 42 14 42 14 0 25 -3 25 -7z m4285 -52 c3
-5 1 -12 -5 -16 -5 -3 -10 1 -10 9 0 18 6 21 15 7z m270 0 c3 -5 1 -12 -5 -16
-5 -3 -10 1 -10 9 0 18 6 21 15 7z m-6289 -28 c-10 -10 -19 5 -10 18 6 11 8
11 12 0 2 -7 1 -15 -2 -18z m600 -2 c-1 -16 -5 -29 -11 -28 -5 1 -9 -3 -10
-10 0 -6 -3 -15 -7 -19 -16 -15 -7 -24 25 -24 18 0 38 5 45 12 7 7 12 9 12 5
0 -16 -68 -47 -103 -47 -21 0 -37 3 -35 8 3 7 82 131 84 132 1 0 1 -13 0 -29z
m4594 9 c0 -5 -4 -10 -10 -10 -5 0 -10 5 -10 10 0 6 5 10 10 10 6 0 10 -4 10
-10z m-1070 -8 c0 -13 -12 -22 -22 -16 -10 6 -1 24 13 24 5 0 9 -4 9 -8z
m-2205 -42 c3 -5 1 -10 -4 -10 -6 0 -11 5 -11 10 0 6 2 10 4 10 3 0 8 -4 11
-10z m1955 -4 c0 -3 -4 -8 -10 -11 -5 -3 -10 -1 -10 4 0 6 5 11 10 11 6 0 10
-2 10 -4z m2445 -16 c3 -5 -1 -10 -9 -10 -9 0 -16 5 -16 10 0 6 4 10 9 10 6 0
13 -4 16 -10z m-5595 -80 c-17 -32 -22 -19 -7 19 7 20 13 27 15 18 2 -9 -2
-26 -8 -37z m2040 40 c0 -5 -7 -10 -15 -10 -8 0 -15 5 -15 10 0 6 7 10 15 10
8 0 15 -4 15 -10z m424 -29 c15 -24 23 -47 19 -60 -7 -26 -21 -26 -51 -3 -22
17 -23 21 -11 60 7 23 14 42 15 42 2 0 15 -17 28 -39z m606 29 c0 -5 -5 -10
-11 -10 -5 0 -7 5 -4 10 3 6 8 10 11 10 2 0 4 -4 4 -10z m-3410 -20 c0 -5 -5
-10 -11 -10 -5 0 -7 5 -4 10 3 6 8 10 11 10 2 0 4 -4 4 -10z m-740 -45 c21
-33 21 -75 0 -75 -26 0 -53 84 -33 103 9 10 9 10 33 -28z m5825 25 c3 -5 -1
-10 -10 -10 -9 0 -13 5 -10 10 3 6 8 10 10 10 2 0 7 -4 10 -10z m165 0 c0 -5
-4 -10 -10 -10 -5 0 -10 5 -10 10 0 6 5 10 10 10 6 0 10 -4 10 -10z m-1665
-10 c3 -5 1 -10 -4 -10 -6 0 -11 5 -11 10 0 6 2 10 4 10 3 0 8 -4 11 -10z
m775 0 c0 -5 -7 -10 -15 -10 -8 0 -15 5 -15 10 0 6 7 10 15 10 8 0 15 -4 15
-10z m-763 -82 c-3 -8 -6 -5 -6 6 -1 11 2 17 5 13 3 -3 4 -12 1 -19z m-137 -8
c0 -5 -4 -10 -10 -10 -5 0 -10 5 -10 10 0 6 5 10 10 10 6 0 10 -4 10 -10z
m-60 -4 c0 -3 -4 -8 -10 -11 -5 -3 -10 -1 -10 4 0 6 5 11 10 11 6 0 10 -2 10
-4z m-1885 -16 c3 -5 -1 -10 -10 -10 -9 0 -13 5 -10 10 3 6 8 10 10 10 2 0 7
-4 10 -10z m-829 -19 c12 -13 152 -51 186 -51 26 0 27 0 21 -57 -6 -59 -28
-92 -64 -93 -23 0 -114 48 -135 72 -14 16 -2 11 49 -17 73 -40 100 -42 46 -4
-43 30 -82 75 -109 122 -20 34 -17 50 6 28z m2924 -1 c0 -5 -4 -10 -10 -10 -5
0 -10 5 -10 10 0 6 5 10 10 10 6 0 10 -4 10 -10z m1295 -26 c16 -25 15 -54 -4
-54 -14 0 -43 50 -37 66 8 21 22 17 41 -12z m-1635 -83 c-1 -20 -18 -30 -41
-23 -23 6 -25 10 -17 41 l9 33 25 -23 c13 -12 24 -25 24 -28z m2680 35 c0 -25
-12 -46 -26 -46 -17 0 -18 26 -1 45 16 18 27 19 27 1z m-438 -11 c0 -5 -5 -11
-11 -13 -6 -2 -11 4 -11 13 0 9 5 15 11 13 6 -2 11 -8 11 -13z m-5004 -11 c40
-19 47 -30 27 -42 -14 -7 -10 -18 23 -73 30 -48 45 -63 60 -62 28 3 34 -20 20
-75 -14 -54 -29 -75 -75 -104 -34 -20 -35 -20 -69 -2 -35 19 -35 19 -77 -4
l-41 -23 -18 23 c-16 22 -16 24 3 44 l20 22 -21 41 c-11 23 -30 51 -41 62 -17
17 -18 24 -8 62 31 118 114 173 197 131z m3032 -4 c0 -5 -5 -10 -11 -10 -5 0
-7 5 -4 10 3 6 8 10 11 10 2 0 4 -4 4 -10z m1900 6 c0 -3 -4 -8 -10 -11 -5 -3
-10 -1 -10 4 0 6 5 11 10 11 6 0 10 -2 10 -4z m-5742 -44 c2 -18 1 -32 -2 -32
-19 0 -36 16 -36 34 0 48 33 46 38 -2z m616 -27 c-24 -36 -49 -83 -55 -105 -7
-22 -15 -38 -18 -36 -3 2 -6 -17 -7 -42 -1 -128 -9 -202 -20 -187 -6 8 -15 15
-19 15 -5 0 -6 -3 -2 -6 3 -3 1 -12 -6 -19 -9 -10 -14 -9 -24 4 -6 9 -15 12
-19 8 -5 -4 -4 -11 1 -15 16 -12 16 -32 0 -26 -26 11 -17 -37 13 -65 15 -14
29 -39 31 -56 3 -27 2 -28 -16 -15 -11 9 -9 4 5 -12 15 -17 19 -27 12 -30 -9
-3 -6 -17 9 -50 11 -26 21 -52 21 -57 0 -6 5 -11 11 -11 5 0 7 -5 3 -12 -9
-14 -111 189 -120 239 -12 66 91 384 119 366 6 -3 7 -1 3 6 -9 14 35 94 77
139 49 51 49 38 1 -33z m3176 37 c0 -13 -12 -22 -22 -16 -10 6 -1 24 13 24 5
0 9 -4 9 -8z m740 4 c0 -3 -4 -8 -10 -11 -5 -3 -10 -1 -10 4 0 6 5 11 10 11 6
0 10 -2 10 -4z m-1862 -29 c2 -10 -3 -17 -12 -17 -10 0 -16 9 -16 21 0 24 23
21 28 -4z m2419 17 c-3 -3 -12 -4 -19 -1 -8 3 -5 6 6 6 11 1 17 -2 13 -5z
m-4183 -76 c18 -33 23 -48 14 -48 -15 0 -79 105 -70 115 8 8 24 -11 56 -67z
m1926 62 c0 -5 -5 -10 -11 -10 -5 0 -7 5 -4 10 3 6 8 10 11 10 2 0 4 -4 4 -10z
m2890 0 c0 -5 -4 -10 -10 -10 -5 0 -10 5 -10 10 0 6 5 10 10 10 6 0 10 -4 10
-10z m-4350 -4 c0 -3 -4 -8 -10 -11 -5 -3 -10 -1 -10 4 0 6 5 11 10 11 6 0 10
-2 10 -4z m-1624 -43 c-11 -11 -19 6 -11 24 8 17 8 17 12 0 3 -10 2 -21 -1
-24z m-386 17 c0 -5 -2 -10 -4 -10 -3 0 -8 5 -11 10 -3 6 -1 10 4 10 6 0 11
-4 11 -10z m2941 -72 c22 -28 24 -42 5 -57 -31 -26 -58 16 -40 63 8 21 12 20
35 -6z m4029 12 c0 -5 -4 -10 -10 -10 -5 0 -10 5 -10 10 0 6 5 10 10 10 6 0
10 -4 10 -10z m-455 -33 c14 -27 15 -38 6 -55 -15 -27 -33 -28 -56 -1 -19 19
-19 21 0 55 10 18 21 34 25 34 4 0 15 -15 25 -33z m-5230 -68 c22 -42 25 -53
14 -60 -21 -13 -25 -11 -37 15 -16 37 -26 96 -15 96 6 0 22 -23 38 -51z m3065
37 c0 -2 -7 -9 -15 -16 -13 -11 -14 -10 -9 4 5 14 24 23 24 12z m389 -17 c23
-19 23 -22 11 -59 -15 -46 -19 -47 -51 -21 -22 18 -22 21 -9 60 7 22 16 41 19
41 3 -1 17 -10 30 -21z m-2689 -43 c47 -20 94 -36 106 -36 26 0 58 -34 79 -84
21 -49 21 -216 1 -332 -10 -56 -12 -93 -5 -122 8 -35 30 -383 25 -389 -2 -2
-39 70 -84 160 l-81 162 13 51 c7 28 33 90 57 138 56 115 63 183 25 252 -14
25 -23 51 -19 57 3 6 1 7 -5 3 -12 -7 -72 68 -72 91 0 7 -5 13 -11 13 -6 0 -8
-9 -4 -20 4 -12 2 -20 -4 -20 -19 0 -202 73 -196 78 18 18 62 40 75 37 8 -2
53 -19 100 -39z m2210 14 c0 -5 -4 -10 -10 -10 -5 0 -10 5 -10 10 0 6 5 10 10
10 6 0 10 -4 10 -10z m-2563 -105 c35 -52 85 -135 113 -183 l49 -89 -36 -68
-36 -69 16 -45 c19 -52 13 -61 -44 -61 -32 0 -44 7 -90 58 -72 78 -185 222
-248 312 -47 69 -50 76 -34 88 12 9 34 11 63 7 40 -5 50 -1 93 30 44 33 56 49
71 98 3 9 9 17 13 17 4 0 36 -43 70 -95z m2373 65 c0 -5 -4 -10 -10 -10 -5 0
-10 5 -10 10 0 6 5 10 10 10 6 0 10 -4 10 -10z m2103 -17 c2 -5 -2 -19 -8 -31
-15 -27 -30 -13 -20 18 6 20 20 26 28 13z m-4603 -28 c-17 -21 -80 -58 -86
-52 -3 3 7 12 23 21 16 8 35 22 42 30 8 9 18 16 23 16 6 0 5 -7 -2 -15z m-792
-40 c-4 -11 -28 -16 -28 -6 0 12 13 22 23 18 5 -1 7 -7 5 -12z m4330 -33 c2
-15 -2 -22 -12 -22 -11 0 -16 9 -16 26 0 31 23 28 28 -4z m-1224 -41 c19 -21
19 -21 -5 -21 -13 0 -48 -7 -78 -15 l-54 -14 43 44 c46 47 56 48 94 6z m-2671
-4 c-11 -12 -25 -31 -31 -42 -9 -16 -11 -17 -12 -4 0 9 7 22 15 29 8 7 15 18
15 25 0 8 6 15 13 18 21 7 21 -2 0 -26z m1307 -28 c0 -17 -5 -29 -13 -29 -22
0 -37 23 -37 57 0 33 0 33 25 17 17 -11 25 -25 25 -45z m1420 28 c13 -5 13 -6
-1 -6 -8 -1 -24 6 -35 15 -19 15 -19 15 1 6 11 -5 27 -12 35 -15z m-1977 -47
c57 -59 58 -62 52 -103 -4 -23 -16 -62 -26 -86 -18 -41 -21 -43 -35 -29 -15
15 -15 21 5 78 23 71 20 83 -33 123 -42 33 -60 34 -81 5 -13 -20 -17 -21 -25
-8 -5 8 -10 18 -10 22 0 12 61 58 78 58 9 0 42 -27 75 -60z m4717 50 c0 -5 -4
-10 -10 -10 -5 0 -10 5 -10 10 0 6 5 10 10 10 6 0 10 -4 10 -10z m-1078 -50
c5 0 2 -7 -6 -16 -30 -29 -80 4 -65 43 l8 23 27 -25 c15 -14 31 -25 36 -25z
m-5416 -1 c16 -32 11 -89 -8 -89 -17 0 -47 44 -48 68 0 30 18 64 31 57 5 -4
16 -20 25 -36z m1044 -43 c-20 -34 -20 -37 -5 -93 9 -32 24 -87 33 -123 21
-76 39 -86 83 -44 l30 29 -13 -31 c-7 -17 -21 -41 -30 -55 -13 -19 -17 -20
-17 -7 -1 9 -10 19 -20 23 -17 5 -45 54 -46 80 -2 30 -40 133 -49 131 -6 -2
-8 -1 -3 1 10 7 9 33 -2 33 -18 0 -2 40 26 65 37 32 39 31 13 -9z m5164 23
c23 -11 40 -42 29 -53 -7 -7 -83 32 -83 43 0 22 19 26 54 10z m-2700 -31 c3
-18 7 -46 8 -61 3 -25 13 -33 93 -68 50 -22 109 -49 132 -60 38 -18 53 -20
164 -13 l122 7 -8 -94 c-4 -52 -9 -96 -11 -98 -2 -3 -66 -10 -142 -17 -75 -7
-158 -16 -184 -19 l-48 -7 0 40 c0 21 -3 67 -6 100 l-7 61 -67 46 c-72 47 -80
51 -80 35 0 -5 5 -10 11 -10 6 0 37 -18 69 -41 55 -38 58 -42 64 -92 8 -71 8
-137 -1 -137 -5 0 -68 -9 -141 -20 -74 -11 -138 -17 -144 -14 -8 5 -5 129 7
229 1 11 3 32 4 48 1 18 7 27 19 28 16 1 16 2 -1 6 -16 4 -17 15 -15 86 l3 82
30 6 c17 4 51 7 77 8 46 1 47 0 52 -31z m-2540 -3 c-4 -8 -8 -15 -10 -15 -2 0
-4 7 -4 15 0 8 4 15 10 15 5 0 7 -7 4 -15z m1916 11 c0 -3 -4 -8 -10 -11 -5
-3 -10 -1 -10 4 0 6 5 11 10 11 6 0 10 -2 10 -4z m334 -15 c8 -12 -3 -41 -15
-41 -5 0 -9 11 -9 25 0 25 14 34 24 16z m-119 -11 c3 -5 1 -10 -4 -10 -6 0
-11 5 -11 10 0 6 2 10 4 10 3 0 8 -4 11 -10z m785 -49 c18 -34 12 -69 -15 -87
-30 -20 -42 -13 -51 30 -11 61 40 105 66 57z m720 5 c0 -3 -4 -8 -10 -11 -5
-3 -10 -1 -10 4 0 6 5 11 10 11 6 0 10 -2 10 -4z m-3620 -50 c0 -8 -5 -18 -12
-22 -7 -4 -8 -3 -4 4 4 7 2 12 -4 12 -6 0 -8 5 -5 10 9 15 25 12 25 -4z m3209
-171 c-6 -93 -12 -171 -14 -174 -7 -6 -132 49 -145 64 -15 19 -1 185 16 185 7
0 18 -18 24 -40 10 -38 33 -70 50 -70 24 0 50 55 50 106 0 44 17 111 26 102 1
-2 -2 -79 -7 -173z m-38 148 c1 -10 3 -31 4 -48 4 -54 -6 -85 -27 -85 -14 0
-18 5 -15 15 4 8 3 16 -1 19 -4 2 -5 29 -4 60 3 47 7 56 23 56 11 0 20 -7 20
-17z m-2431 -24 c0 -18 34 -54 50 -54 23 0 25 -57 3 -83 -10 -12 -31 -24 -46
-28 l-28 -6 31 31 c33 33 34 51 2 99 -16 25 -69 31 -90 10 -9 -9 -12 -9 -12
-1 0 17 41 43 67 43 13 0 23 -5 23 -11z m41 -26 c13 -16 12 -17 -3 -4 -10 7
-18 15 -18 17 0 8 8 3 21 -13z m3889 -8 c0 -26 -14 -33 -25 -15 -9 14 1 40 15
40 5 0 10 -11 10 -25z m-542 -8 c2 -12 -3 -17 -17 -17 -23 0 -24 1 -15 25 8
19 28 15 32 -8z m-3385 -29 c21 -36 21 -37 3 -57 -19 -21 -52 -27 -71 -13 -6
4 -16 20 -24 37 -12 28 -11 31 14 53 35 30 52 25 78 -20z m3005 24 c2 -6 -6
-10 -17 -9 -22 1 -26 8 -14 21 9 9 26 3 31 -12z m-208 -22 c0 -5 -4 -10 -10
-10 -5 0 -10 5 -10 10 0 6 5 10 10 10 6 0 10 -4 10 -10z m-41 -43 c-2 -1 -12
-9 -22 -16 -15 -12 -17 -12 -11 3 3 9 13 16 22 16 8 0 13 -1 11 -3z m1719 -45
c2 -14 -2 -22 -12 -22 -19 0 -29 17 -22 36 8 22 30 12 34 -14z m-3550 -35 c2
-22 -1 -37 -8 -37 -14 0 -32 49 -25 68 9 25 30 6 33 -31z m-978 23 c12 -8 11
-10 -7 -10 -13 0 -23 5 -23 10 0 13 11 13 30 0z m207 -32 c14 -24 56 -99 91
-168 35 -69 79 -150 98 -181 19 -31 34 -59 34 -62 0 -3 23 -44 50 -92 28 -48
50 -90 50 -94 0 -4 -22 -28 -48 -54 l-48 -47 -58 65 c-62 71 -75 104 -76 192
0 60 -22 92 -98 143 -38 26 -54 31 -87 27 -40 -4 -41 -3 -114 84 -41 48 -85
107 -97 132 l-23 45 31 6 c17 3 42 6 57 6 14 0 53 9 86 19 98 31 120 28 152
-21z m4563 22 c0 -5 -2 -10 -4 -10 -3 0 -8 5 -11 10 -3 6 -1 10 4 10 6 0 11
-4 11 -10z m-5569 -40 c21 -12 23 -18 10 -39 -8 -12 -12 -12 -25 -2 -15 13
-23 51 -10 51 3 0 14 -5 25 -10z m194 -82 c7 -15 10 -28 6 -30 -3 -2 -4 -16 0
-33 5 -23 7 -25 8 -8 1 16 5 21 17 16 13 -5 15 -2 9 17 -5 15 -4 20 4 16 7 -5
12 3 12 21 2 24 2 25 6 5 5 -26 -25 -118 -44 -133 -9 -8 -13 -1 -18 28 -6 39
-30 144 -40 179 -3 10 2 3 11 -16 9 -19 22 -47 29 -62z m-813 65 c20 -18 22
-31 9 -52 -14 -22 -41 5 -41 40 0 33 6 36 32 12z m865 -20 c-3 -10 -5 -4 -5
12 0 17 2 24 5 18 2 -7 2 -21 0 -30z m1233 33 c0 -3 -4 -8 -10 -11 -5 -3 -10
-1 -10 4 0 6 5 11 10 11 6 0 10 -2 10 -4z m2327 -31 c3 -9 3 -18 0 -21 -9 -9
-48 16 -42 27 9 14 35 11 42 -6z m-233 -50 c3 -8 1 -15 -4 -15 -6 0 -10 7 -10
15 0 8 2 15 4 15 2 0 6 -7 10 -15z m2576 -5 c0 -5 -7 -10 -15 -10 -8 0 -15 5
-15 10 0 6 7 10 15 10 8 0 15 -4 15 -10z m-2895 -47 c28 -13 35 -22 35 -45 0
-23 -4 -28 -24 -28 -13 0 -35 -9 -50 -21 -24 -19 -26 -27 -26 -91 0 -55 3 -68
13 -61 6 6 24 13 39 17 21 5 30 2 38 -14 8 -16 6 -26 -10 -48 -20 -28 -21 -31
-7 -88 22 -87 29 -134 20 -134 -4 0 -41 32 -82 70 -71 68 -73 71 -68 108 3 20
9 101 13 180 6 129 9 144 28 157 26 19 37 19 81 -2z m1065 -3 c0 -5 -7 -10
-15 -10 -8 0 -15 5 -15 10 0 6 7 10 15 10 8 0 15 -4 15 -10z m-3586 -22 c-4
-7 -3 -8 4 -4 16 10 54 -12 46 -26 -4 -6 -3 -8 3 -5 9 6 30 -12 61 -54 10 -14
3 -20 -48 -47 -33 -18 -67 -32 -76 -32 -9 0 -59 -32 -112 -70 -53 -39 -108
-73 -122 -76 -47 -10 -152 -55 -184 -79 -18 -14 -51 -31 -74 -39 -23 -9 -62
-29 -86 -46 -52 -35 -81 -38 -97 -9 -15 29 -5 82 29 160 44 102 121 236 140
244 164 67 280 93 410 94 83 1 111 -2 106 -11z m-1008 -87 c-19 -30 -55 1 -42
36 6 15 9 15 28 -4 11 -12 17 -26 14 -32z m2498 23 c9 -33 -4 -47 -37 -42
l-26 3 20 33 c25 39 35 40 43 6z m1021 -50 c-44 -73 -45 -74 -45 -30 0 39 35
86 64 86 11 0 5 -15 -19 -56z m-2285 -39 c0 -41 -3 -48 -34 -66 -45 -26 -59
-84 -27 -110 17 -14 21 -27 20 -63 -2 -45 -3 -46 -48 -61 -26 -8 -63 -26 -83
-40 -43 -29 -48 -30 -48 -10 0 8 -5 15 -11 15 -7 0 -18 8 -25 18 -8 10 -13 12
-14 5 0 -7 9 -21 21 -32 19 -18 24 -58 6 -55 -4 1 -88 7 -187 14 l-179 13 21
31 c12 17 42 53 66 80 41 44 44 46 38 20 -4 -16 -7 -38 -8 -49 0 -11 -2 -14
-5 -7 -5 13 -33 17 -33 4 0 -8 37 -42 46 -42 5 0 20 11 49 38 8 7 18 14 22 15
4 1 7 5 5 10 -1 4 5 7 14 7 8 0 13 4 9 9 -3 5 4 16 15 24 12 8 22 24 23 35 1
16 4 18 14 11 18 -16 78 7 103 38 11 14 20 37 20 51 0 24 1 25 13 7 9 -11 16
-14 21 -7 6 11 -19 42 -34 42 -5 0 -12 -5 -15 -10 -4 -6 -11 -8 -16 -4 -5 3
-7 10 -4 15 4 5 -2 6 -11 2 -10 -4 -13 -8 -7 -10 8 -3 8 -14 3 -34 -5 -17 -5
-29 1 -29 5 0 9 -4 9 -10 0 -5 -7 -7 -15 -4 -9 4 -15 19 -15 36 0 29 0 29 -24
11 -19 -14 -22 -21 -13 -32 9 -11 9 -13 0 -8 -6 4 -18 -2 -26 -13 -9 -12 -20
-18 -30 -14 -20 7 -69 -25 -60 -40 3 -6 3 -8 -2 -4 -4 4 -14 3 -22 -3 -9 -8
-13 -8 -13 -1 0 21 202 172 230 172 9 0 51 18 94 40 46 24 91 40 112 40 34 0
34 0 34 -45z m1535 -23 c-9 -80 -41 -113 -99 -104 l-39 7 38 50 c46 61 97 116
103 110 2 -2 1 -31 -3 -63z m1305 58 c0 -5 -5 -10 -11 -10 -5 0 -7 5 -4 10 3
6 8 10 11 10 2 0 4 -4 4 -10z m531 -53 c-16 -16 -35 6 -26 33 l7 22 15 -22
c11 -16 12 -25 4 -33z m504 23 c-3 -5 -11 -10 -16 -10 -6 0 -7 5 -4 10 3 6 11
10 16 10 6 0 7 -4 4 -10z m763 -28 c2 -14 -2 -22 -11 -22 -17 0 -30 27 -21 41
9 16 29 4 32 -19z m-3878 4 c0 -3 -4 -8 -10 -11 -5 -3 -10 -1 -10 4 0 6 5 11
10 11 6 0 10 -2 10 -4z m1748 -54 c112 -84 337 -408 318 -457 -8 -22 -250
-105 -306 -105 -7 0 -19 8 -26 18 -16 20 -18 36 -4 27 6 -4 8 6 6 27 -3 18 -5
36 -5 39 -1 4 -8 10 -17 13 -11 4 -15 2 -11 -6 32 -86 11 -67 -30 27 -41 92
-52 134 -23 85 l21 -35 -6 30 c-4 17 -13 43 -20 58 -17 35 -9 60 16 52 20 -7
27 9 9 20 -12 8 5 45 21 45 6 0 3 -7 -6 -16 -12 -12 -13 -19 -4 -30 16 -20 39
-17 39 4 0 14 2 15 10 2 8 -12 10 -12 16 3 3 9 12 17 20 17 8 0 11 6 7 17 -4
11 -3 14 5 9 7 -4 12 -1 12 8 0 9 -5 16 -11 16 -6 0 -9 6 -6 13 5 14 -33 87
-45 87 -5 0 -6 -5 -2 -12 4 -7 3 -8 -5 -4 -8 5 -9 12 -2 19 13 16 -39 19 -58
4 -11 -9 -13 -9 -8 0 14 23 -10 21 -37 -4 -15 -14 -30 -23 -32 -20 -6 6 74 72
96 79 17 6 23 3 68 -30z m-1991 2 c-3 -3 -12 -4 -19 -1 -8 3 -5 6 6 6 11 1 17
-2 13 -5z m829 -49 c43 -14 100 -25 126 -25 62 0 104 -33 94 -74 -4 -15 -14
-29 -24 -32 -52 -15 -171 -86 -223 -133 -58 -52 -61 -53 -74 -34 -8 12 -27 24
-42 28 -40 10 -59 35 -67 86 -4 31 -2 53 9 73 8 16 13 32 9 35 -8 8 -32 -26
-58 -84 -33 -74 -38 -76 -149 -68 l-96 6 24 29 c16 19 25 42 25 64 0 35 2 36
88 76 102 47 131 58 192 68 73 12 84 11 166 -15z m3060 -2 c-10 -10 -19 5 -10
18 6 11 8 11 12 0 2 -7 1 -15 -2 -18z m-6157 -27 c9 -10 9 -16 1 -21 -16 -10
-40 2 -40 20 0 19 24 20 39 1z m1375 -31 c4 -11 -2 -15 -22 -14 -17 1 -20 3
-9 6 9 2 17 9 17 14 0 14 7 11 14 -6z m-104 -9 c0 -3 -4 -8 -10 -11 -5 -3 -10
-1 -10 4 0 6 5 11 10 11 6 0 10 -2 10 -4z m-90 -35 c0 -6 -4 -13 -10 -16 -18
-11 -11 -28 9 -22 15 4 11 -7 -20 -45 -21 -27 -39 -53 -39 -57 0 -5 -86 0
-179 11 -23 2 38 46 88 63 51 17 104 21 62 4 -17 -7 -22 -15 -18 -29 4 -15 0
-20 -16 -21 -19 -1 -19 -2 -3 -6 10 -3 23 0 29 6 14 14 30 14 22 1 -3 -5 -3
-10 2 -10 4 0 13 15 19 33 6 17 15 41 19 51 7 16 5 18 -13 14 -27 -8 -18 10
12 22 28 12 36 12 36 1z m3600 -6 c0 -8 -4 -15 -10 -15 -5 0 -7 7 -4 15 4 8 8
15 10 15 2 0 4 -7 4 -15z m-83 -1 c-3 -3 -12 -4 -19 -1 -8 3 -5 6 6 6 11 1 17
-2 13 -5z m1077 -19 c17 -18 11 -45 -10 -45 -9 0 -14 11 -14 30 0 34 3 36 24
15z m-4467 -37 c-3 -8 -6 -5 -6 6 -1 11 2 17 5 13 3 -3 4 -12 1 -19z m783
-166 c0 -1 -10 0 -22 2 -13 3 -44 8 -70 11 l-47 6 -15 69 c-9 38 -16 75 -16
82 0 10 170 -159 170 -170z m9 108 c-29 -27 -55 -50 -56 -50 -2 0 -3 6 -3 14
0 23 91 109 103 97 7 -7 -7 -26 -44 -61z m321 55 c0 -2 -21 -16 -47 -31 -51
-29 -58 -30 -167 -32 -92 -3 -80 -11 18 -13 57 -1 75 -4 66 -13 -6 -6 -25 -12
-43 -13 -18 -1 -56 -5 -84 -9 -41 -5 -53 -3 -53 8 0 23 31 60 46 54 8 -3 14
-1 14 4 0 6 15 10 33 10 18 0 37 4 43 9 10 9 95 31 116 30 7 0 4 -4 -7 -9 -19
-8 -19 -9 3 -9 12 -1 25 5 28 13 5 12 34 12 34 1z m956 -42 c120 -182 189
-261 463 -530 l206 -201 -26 -29 c-20 -21 -96 -122 -116 -152 -1 -2 -46 26
-100 61 -54 36 -177 111 -273 168 -96 57 -209 126 -250 154 -87 58 -244 215
-280 280 l-24 45 30 58 c32 64 80 102 209 167 99 51 115 49 161 -21z m-1594
16 c4 -24 0 -32 -16 -39 -26 -10 -34 -3 -42 38 -6 30 -5 32 24 32 26 0 30 -4
34 -31z m-1769 -5 c-7 -20 -18 -17 -20 5 -1 13 3 18 12 15 8 -3 11 -12 8 -20z
m-216 -36 c-3 -8 -6 -5 -6 6 -1 11 2 17 5 13 3 -3 4 -12 1 -19z m7121 -72 c-4
-25 -33 -33 -42 -11 -3 9 -1 25 5 36 8 17 13 18 25 8 8 -7 14 -22 12 -33z
m-4834 18 c3 -8 2 -12 -4 -9 -6 3 -10 10 -10 16 0 14 7 11 14 -7z m3336 6 c0
-5 -5 -10 -11 -10 -5 0 -7 5 -4 10 3 6 8 10 11 10 2 0 4 -4 4 -10z m-3159 -18
c-15 -29 -54 -43 -107 -40 -41 3 -49 6 -49 23 0 18 8 20 65 23 55 2 85 6 98
11 1 0 -2 -7 -7 -17z m-2226 -22 c3 -5 1 -10 -4 -10 -6 0 -11 5 -11 10 0 6 2
10 4 10 3 0 8 -4 11 -10z m585 -14 c0 -2 -7 -6 -15 -10 -8 -3 -15 -1 -15 4 0
6 7 10 15 10 8 0 15 -2 15 -4z m1430 -7 c41 -6 119 -10 172 -10 l97 2 31 -43
c36 -50 54 -54 58 -15 4 30 16 36 26 12 9 -23 58 -39 71 -23 26 32 49 35 200
27 230 -13 246 -17 276 -67 96 -157 217 -260 499 -422 154 -89 264 -155 309
-187 l46 -34 -50 5 c-27 3 -131 13 -230 21 -99 9 -286 25 -415 36 -129 11
-320 26 -425 34 -253 18 -547 45 -557 51 -4 3 -8 10 -8 17 0 6 -16 48 -35 92
-66 153 -169 516 -147 515 4 0 41 -5 82 -11z m-1533 -5 c-3 -3 -12 -4 -19 -1
-8 3 -5 6 6 6 11 1 17 -2 13 -5z m5883 -4 c0 -5 -4 -10 -10 -10 -5 0 -10 5
-10 10 0 6 5 10 10 10 6 0 10 -4 10 -10z m-360 -50 c0 -5 -4 -10 -10 -10 -5 0
-10 5 -10 10 0 6 5 10 10 10 6 0 10 -4 10 -10z m-835 -10 c-3 -5 -10 -10 -16
-10 -5 0 -9 5 -9 10 0 6 7 10 16 10 8 0 12 -4 9 -10z m-5465 -31 c0 -6 -4 -7
-10 -4 -5 3 -10 11 -10 16 0 6 5 7 10 4 6 -3 10 -11 10 -16z m390 -19 c0 -5
-5 -10 -11 -10 -5 0 -7 5 -4 10 3 6 8 10 11 10 2 0 4 -4 4 -10z m3920 -36 c0
-27 -9 -28 -60 -9 -30 11 -32 14 -15 20 11 4 29 10 40 15 26 10 35 4 35 -26z
m503 9 c9 -47 -4 -59 -24 -22 -23 43 -23 49 0 49 12 0 20 -9 24 -27z m-48 -3
c3 -5 1 -20 -6 -32 -12 -22 -12 -22 -20 -3 -4 11 -8 26 -8 33 -1 14 25 16 34
2z m-515 -33 c41 -14 42 -15 10 -11 -19 3 -87 11 -150 19 l-115 14 105 -3 c62
-2 123 -10 150 -19z m870 3 c0 -5 -4 -10 -10 -10 -5 0 -10 5 -10 10 0 6 5 10
10 10 6 0 10 -4 10 -10z m1842 -12 c-7 -7 -12 -8 -12 -2 0 14 12 26 19 19 2
-3 -1 -11 -7 -17z m-2333 -15 c12 -26 12 -26 -10 -11 -28 18 -36 38 -16 38 7
0 19 -12 26 -27z m-4459 7 c0 -5 -10 -10 -22 -9 -22 0 -22 1 -3 9 11 5 21 9
23 9 1 1 2 -3 2 -9z m455 0 c-3 -5 -10 -10 -16 -10 -5 0 -9 5 -9 10 0 6 7 10
16 10 8 0 12 -4 9 -10z m-40 -10 c3 -5 2 -10 -4 -10 -5 0 -13 5 -16 10 -3 6
-2 10 4 10 5 0 13 -4 16 -10z m-305 -16 c0 -8 -4 -12 -10 -9 -5 3 -10 10 -10
16 0 5 5 9 10 9 6 0 10 -7 10 -16z m870 -26 c0 -13 -23 -5 -28 10 -2 7 2 10
12 6 9 -3 16 -11 16 -16z m-1003 6 c-3 -3 -12 -4 -19 -1 -8 3 -5 6 6 6 11 1
17 -2 13 -5z m6383 2 c0 -3 -4 -8 -10 -11 -5 -3 -10 -1 -10 4 0 6 5 11 10 11
6 0 10 -2 10 -4z m-5479 -59 c-11 -12 -21 -16 -21 -10 0 6 6 16 14 23 8 6 12
19 10 28 -4 13 -3 13 6 -2 10 -15 9 -22 -9 -39z m-279 24 c-1 -7 2 -10 8 -6 5
3 10 1 10 -4 0 -14 -37 -14 -45 -1 -3 6 -3 15 0 21 9 13 31 5 27 -10z m68 4
c0 -8 -4 -15 -10 -15 -5 0 -7 7 -4 15 4 8 8 15 10 15 2 0 4 -7 4 -15z m158
-20 c-3 -3 -9 2 -12 12 -6 14 -5 15 5 6 7 -7 10 -15 7 -18z m-894 -60 c-4 -8
-11 -15 -16 -15 -6 0 -5 6 2 15 7 8 14 15 16 15 2 0 1 -7 -2 -15z m111 -131
l81 -6 37 -312 c21 -171 38 -317 37 -325 0 -12 -20 -13 -112 -7 -62 4 -116 10
-119 14 -6 6 -20 106 -49 352 -15 126 -30 233 -36 269 l-7 34 44 -6 c24 -4 80
-9 124 -13z m272 -20 l52 -5 6 -42 c3 -23 19 -154 35 -292 17 -137 33 -265 36
-284 l5 -34 -108 7 c-59 4 -111 10 -114 14 -4 4 -14 70 -24 147 -9 77 -28 219
-41 315 -13 96 -24 178 -24 182 0 7 48 5 177 -8z m203 -24 c47 -6 86 -13 87
-14 3 -2 47 -375 64 -530 5 -54 8 -100 6 -103 -3 -2 -51 0 -108 4 l-104 8 -32
270 c-18 149 -36 294 -41 322 -10 59 -7 66 23 59 11 -3 58 -10 105 -16z m338
-35 c6 -5 82 -572 82 -609 l0 -28 -72 6 c-158 14 -168 16 -173 39 -5 25 -65
584 -65 608 0 14 11 14 112 2 62 -7 114 -15 116 -18z m228 -8 c9 -9 109 -636
103 -641 -8 -6 -224 15 -230 22 -3 4 -11 57 -18 117 -7 61 -23 197 -37 304
-13 106 -24 198 -24 204 0 10 196 4 206 -6z m224 -16 c31 -6 35 -11 42 -46 4
-22 27 -157 53 -300 25 -143 47 -268 50 -279 4 -18 -2 -18 -118 -12 -67 4
-124 10 -126 12 -6 6 -101 600 -101 631 0 12 15 13 83 8 45 -4 98 -10 117 -14z
m2853 -101 c-31 -30 -74 -79 -95 -107 -34 -45 -43 -51 -59 -42 -10 5 -19 12
-19 16 0 27 134 199 170 218 22 12 27 12 42 -8 16 -21 15 -23 -39 -77z m121
85 c-4 -8 -8 -15 -10 -15 -2 0 -4 7 -4 15 0 8 4 15 10 15 5 0 7 -7 4 -15z
m-2684 -15 c4 -6 28 -140 54 -298 25 -158 49 -298 52 -311 l5 -24 -105 7 c-58
3 -112 9 -121 12 -18 7 -16 3 -51 199 -14 83 -37 210 -50 284 -13 74 -24 139
-24 144 0 14 231 1 240 -13z m225 -14 l30 -1 33 -170 c18 -93 37 -190 41 -215
5 -25 16 -89 26 -143 10 -53 16 -99 13 -102 -6 -6 -224 6 -237 14 -5 3 -25
101 -45 216 -20 116 -42 248 -51 295 -23 134 -29 124 73 115 48 -4 101 -8 117
-9z m3080 -2 c13 -11 16 -18 8 -21 -93 -35 -375 -204 -420 -252 -30 -31 -86
-61 -116 -61 -35 0 -109 -41 -158 -87 l-37 -35 -16 23 c-9 14 -16 43 -16 70 0
32 -5 49 -15 53 -8 3 -15 13 -15 23 0 10 -14 28 -31 39 l-30 22 63 77 c85 104
85 105 141 67 70 -49 161 -61 269 -37 95 21 132 37 171 73 56 53 162 77 202
46z m-3013 -23 c2 -5 36 -46 77 -91 40 -44 102 -122 138 -173 57 -83 63 -96
58 -129 -4 -21 -1 -46 5 -59 11 -19 51 -172 47 -175 -4 -2 -213 17 -223 20 -6
2 -14 24 -17 48 -14 90 -94 524 -103 550 -5 18 11 26 18 9z m2368 -11 c0 -5
-7 -10 -16 -10 -8 0 -12 5 -9 10 3 6 10 10 16 10 5 0 9 -4 9 -10z m-1550 -51
c47 -6 88 -14 92 -18 7 -6 36 -139 103 -465 14 -65 25 -123 25 -127 0 -5 -12
-7 -27 -4 -16 2 -63 7 -105 10 l-76 7 -12 49 c-8 31 -10 75 -5 113 9 86 -15
170 -60 211 -29 26 -35 42 -54 134 -11 57 -21 106 -21 108 0 3 12 2 28 -1 15
-3 65 -10 112 -17z m1690 -9 c0 -5 -4 -10 -10 -10 -5 0 -10 5 -10 10 0 6 5 10
10 10 6 0 10 -4 10 -10z m-1418 -15 c97 -7 89 0 108 -100 7 -33 34 -158 61
-279 27 -120 49 -222 49 -226 0 -5 -15 -7 -32 -5 -18 3 -76 7 -128 11 l-95 6
-38 191 c-21 106 -49 241 -61 300 -18 84 -21 107 -10 103 7 -3 16 -1 20 5 3 5
13 8 22 5 10 -2 56 -7 104 -11z m1388 5 c0 -5 -2 -10 -4 -10 -3 0 -8 5 -11 10
-3 6 -1 10 4 10 6 0 11 -4 11 -10z m94 1 c4 -5 -3 -7 -14 -4 -23 6 -26 13 -6
13 8 0 17 -4 20 -9z m-39 -11 c3 -5 1 -10 -4 -10 -6 0 -11 5 -11 10 0 6 2 10
4 10 3 0 8 -4 11 -10z m-1172 -14 c32 -2 60 -6 62 -8 2 -2 15 -55 29 -117 25
-108 26 -144 6 -111 -7 10 -10 11 -10 3 0 -7 -4 -13 -10 -13 -5 0 -10 8 -10
17 0 9 -3 14 -6 10 -15 -14 7 -43 33 -42 27 0 28 -2 65 -155 20 -85 38 -163
38 -174 0 -17 -7 -18 -112 -11 -62 3 -116 10 -119 13 -3 4 -25 97 -49 207 -23
110 -51 234 -61 277 -29 119 -29 121 34 113 28 -3 78 -7 110 -9z m171 -22 c11
-11 25 -14 45 -9 16 3 45 3 64 0 l35 -7 66 -271 c37 -150 69 -283 72 -295 l5
-24 -113 7 c-62 4 -117 11 -121 15 -5 4 -19 56 -33 116 -50 227 -90 396 -110
467 -5 14 1 17 35 17 23 0 46 -7 55 -16z m383 -28 c13 -1 25 -4 27 -7 4 -4
110 -464 125 -544 l9 -46 -82 6 c-44 3 -99 8 -122 11 l-40 5 -28 117 c-15 64
-45 190 -67 280 -21 90 -39 170 -39 179 0 15 44 15 217 -1z m163 -16 c0 -5 18
-19 39 -30 50 -25 91 -63 91 -83 0 -8 7 -17 15 -21 10 -4 15 -19 15 -49 0 -29
7 -53 20 -70 11 -14 20 -35 20 -46 0 -12 6 -32 14 -44 14 -20 56 -204 56 -241
0 -11 -9 -16 -27 -17 -64 -2 46 -18 202 -29 206 -14 215 -16 215 -45 0 -13 7
-50 15 -82 8 -32 21 -93 29 -137 l14 -78 -102 7 c-153 10 -445 34 -494 41 -53
8 -54 10 -82 169 -12 66 -24 128 -27 139 -5 17 1 18 98 12 67 -4 97 -3 84 3
-11 5 -43 10 -71 10 -28 1 -65 4 -81 7 -33 7 -30 -4 -108 354 -18 85 -38 174
-43 198 l-10 42 59 0 c32 0 59 -4 59 -10z m959 -84 c15 -8 67 -18 114 -22 48
-4 90 -11 93 -15 3 -5 9 -35 15 -66 5 -32 29 -156 52 -275 l44 -217 -81 5
c-151 9 -140 3 -159 92 -9 42 -32 163 -52 267 -44 234 -46 243 -52 228 -3 -7
14 -108 37 -225 23 -117 47 -243 54 -280 l13 -68 -76 6 c-42 3 -94 7 -117 10
l-41 5 -33 156 c-18 86 -35 173 -38 195 -2 21 -9 41 -15 45 -12 7 -10 -4 36
-227 19 -91 34 -166 32 -168 -8 -8 -239 19 -245 29 -4 6 -18 65 -31 130 -12
66 -26 116 -30 112 -4 -5 1 -44 11 -88 10 -44 21 -99 25 -123 l7 -44 -83 7
c-147 11 -145 10 -157 58 -15 55 -32 144 -32 162 0 12 4 12 28 -1 48 -25 91
-17 175 31 42 25 77 49 77 54 0 12 81 51 107 51 38 0 158 69 223 129 36 33 66
60 68 61 2 0 15 -6 31 -14z m-2329 -21 c10 -12 10 -15 -1 -15 -57 -1 -197
-105 -235 -175 -24 -46 -38 -45 -29 3 11 59 34 100 83 142 63 56 154 78 182
45z m-203 -30 c3 -9 3 -19 -1 -22 -8 -9 -37 18 -30 28 8 14 24 11 31 -6z
m2974 -4 c9 -8 123 -550 118 -555 -6 -6 -216 8 -223 14 -3 3 -28 120 -56 260
-27 140 -52 265 -55 278 l-6 23 108 -6 c59 -4 111 -10 114 -14z m216 -20 c25
-7 29 -15 41 -77 7 -38 33 -160 58 -272 24 -112 44 -205 44 -208 0 -2 -30 -2
-67 1 -140 12 -150 14 -157 38 -9 29 -116 526 -116 535 0 6 165 -8 197 -17z
m-3227 -1 c0 -5 -2 -10 -4 -10 -3 0 -8 5 -11 10 -3 6 -1 10 4 10 6 0 11 -4 11
-10z m3467 -16 c34 -4 44 -10 48 -27 3 -12 30 -121 59 -242 30 -121 58 -237
61 -257 l7 -37 -93 5 c-111 6 -157 12 -163 22 -4 8 -116 530 -116 544 0 8 97
4 197 -8z m-3513 -36 c6 -4 19 0 28 9 23 20 24 10 2 -12 -23 -22 -32 -187 -14
-249 7 -25 9 -53 5 -63 -5 -14 -18 5 -50 74 -24 50 -55 108 -70 127 -32 41
-27 56 37 111 29 24 44 32 47 23 2 -7 9 -16 15 -20z m3787 4 c8 -8 119 -505
119 -532 0 -19 -2 -19 -147 -4 l-52 5 -65 270 c-36 149 -66 274 -66 278 0 9
202 -7 211 -17z m144 -5 c95 -12 100 -14 103 -37 2 -14 28 -134 58 -267 30
-133 54 -246 54 -250 0 -5 -37 -5 -82 -1 -46 3 -95 7 -109 7 -25 1 -26 5 -68
199 -24 108 -52 231 -62 274 -11 42 -19 79 -19 82 0 8 5 7 125 -7z m317 -36
c8 -7 65 -246 124 -520 5 -23 3 -23 -33 -18 -21 4 -68 7 -104 7 -61 0 -67 2
-72 23 -29 135 -82 368 -98 431 -10 44 -19 84 -19 88 0 9 191 -1 202 -11z
m239 -20 c3 -3 13 -42 22 -86 9 -44 25 -123 37 -175 11 -52 27 -129 36 -170 8
-41 17 -83 20 -93 5 -16 0 -17 -38 -13 -24 3 -70 8 -103 11 -33 4 -60 7 -60 8
-13 38 -37 131 -50 192 -10 44 -30 135 -46 202 -16 67 -29 127 -29 133 0 12
199 3 211 -9z m-6771 -51 c58 -5 177 -14 265 -20 88 -5 183 -12 211 -16 l52
-6 5 -42 c3 -22 10 -77 16 -121 6 -44 13 -95 16 -114 l4 -34 -77 6 c-195 15
-474 36 -540 41 -41 2 -75 6 -77 8 -1 2 -10 59 -19 128 -9 69 -19 137 -21 153
-5 32 -4 32 165 17z m2218 -83 c16 -28 42 -88 57 -132 32 -93 52 -115 106
-115 48 0 134 32 165 61 l23 22 5 -24 c21 -104 38 -220 33 -225 -3 -4 -70 -1
-149 5 -79 6 -217 16 -308 22 -212 13 -210 13 -210 47 0 15 -7 61 -16 102 -8
41 -18 101 -21 134 l-6 59 54 -6 c72 -9 300 -17 272 -11 -15 4 -25 15 -28 32
-3 15 -10 42 -14 60 -12 43 1 33 37 -31z m-1443 29 c105 -8 235 -18 290 -22
55 -5 107 -7 116 -6 12 1 18 -10 22 -41 3 -23 15 -93 26 -156 11 -63 19 -117
16 -119 -2 -2 -102 3 -222 12 -120 9 -254 19 -298 22 -143 9 -145 10 -146 52
0 20 -8 90 -18 155 -17 117 -17 117 4 117 11 0 106 -6 210 -14z m590 -41 c170
-10 508 -34 510 -37 6 -7 54 -312 51 -316 -3 -2 -67 1 -143 8 -76 6 -158 12
-183 14 -263 15 -321 20 -329 30 -10 12 -51 248 -51 292 0 19 4 24 18 20 9 -2
67 -8 127 -11z m1295 -28 l0 -43 -35 4 c-37 4 -37 6 -1 55 28 38 36 34 36 -16z
m260 -78 c80 -6 187 -14 239 -17 l95 -7 18 -70 c23 -93 50 -247 43 -253 -3 -3
-98 2 -213 12 -114 10 -264 20 -333 23 l-126 6 -12 34 c-20 53 -48 229 -43
264 l5 31 91 -6 c50 -4 156 -11 236 -17z m595 -44 c105 -8 242 -18 306 -21
l117 -7 6 -41 c3 -23 16 -97 30 -165 l24 -124 -72 7 c-101 9 -312 24 -431 31
-174 10 -161 3 -174 93 -7 42 -20 114 -30 160 l-18 82 26 0 c14 0 112 -7 216
-15z m-2917 -124 c156 -11 285 -21 287 -23 2 -2 9 -59 15 -128 6 -69 14 -127
17 -130 3 -3 2 55 -1 129 l-7 134 48 -6 c26 -4 181 -16 343 -28 162 -11 298
-24 301 -27 7 -8 39 -200 39 -233 0 -24 4 -24 -365 1 -77 6 -246 17 -375 25
-313 19 -534 35 -596 41 l-51 5 -6 98 c-4 54 -10 112 -13 130 l-6 31 43 0 c24
0 171 -9 327 -19z m1380 -101 c145 -11 273 -20 286 -20 20 0 25 -7 30 -37 4
-21 14 -77 23 -126 9 -48 14 -89 12 -91 -2 -2 -62 0 -134 5 -71 4 -221 13
-331 20 l-202 12 -16 101 c-9 56 -19 113 -21 127 -5 35 0 39 49 33 22 -2 159
-14 304 -24z m4632 -24 c0 -2 -7 -9 -15 -16 -12 -10 -15 -10 -15 4 0 9 7 16
15 16 8 0 15 -2 15 -4z m10 -124 c0 -55 -7 -51 -19 10 -6 37 -5 45 5 41 9 -3
14 -22 14 -51z"/>
<path d="M1531 4314 c0 -11 3 -14 6 -6 3 7 2 16 -1 19 -3 4 -6 -2 -5 -13z"/>
<path d="M1974 4306 c-10 -8 -16 -17 -12 -21 4 -4 17 2 29 14 26 24 13 29 -17
7z"/>
<path d="M1740 4280 c-12 -8 -11 -10 8 -10 12 0 22 5 22 10 0 13 -11 13 -30 0z"/>
<path d="M1936 4063 c1 -32 21 -37 38 -10 8 14 8 20 -4 27 -25 16 -36 11 -34
-17z m24 -13 c0 -5 -5 -10 -11 -10 -5 0 -7 5 -4 10 3 6 8 10 11 10 2 0 4 -4 4
-10z"/>
<path d="M1940 3931 c22 -6 23 -8 7 -14 -27 -10 -49 -9 -42 3 9 14 -1 12 -35
-5 -17 -9 -30 -22 -30 -29 0 -17 60 -46 92 -45 23 1 23 1 -3 8 -76 24 -89 55
-23 57 21 1 49 5 62 9 17 6 22 4 22 -11 0 -9 -8 -26 -17 -37 -14 -16 -15 -19
-3 -15 19 6 53 64 45 78 -3 5 -27 10 -53 9 -36 -1 -41 -3 -22 -8z"/>
<path d="M1500 3594 c0 -4 21 -40 46 -80 35 -56 45 -80 40 -99 -9 -34 -47 -57
-88 -53 -28 3 -39 12 -78 70 -24 37 -46 65 -48 63 -3 -2 17 -38 44 -80 47 -72
51 -75 88 -75 30 0 45 7 72 34 19 19 34 42 34 52 0 10 -23 53 -51 96 -49 74
-59 86 -59 72z"/>
<path d="M1462 3492 c-15 -12 -21 -24 -17 -35 6 -15 9 -15 30 -1 41 27 62 -3
25 -34 -12 -11 -17 -22 -12 -29 6 -9 17 -5 42 16 l34 28 -24 37 c-28 40 -44
44 -78 18z"/>
<path d="M1215 3271 c-3 -5 -1 -12 5 -16 5 -3 10 1 10 9 0 18 -6 21 -15 7z"/>
<path d="M2003 3393 c-10 -3 -10 -7 0 -18 14 -15 27 -10 27 11 0 14 -6 16 -27
7z"/>
<path d="M2230 2879 c0 -5 5 -7 10 -4 6 3 10 8 10 11 0 2 -4 4 -10 4 -5 0 -10
-5 -10 -11z"/>
<path d="M2211 2811 c-9 -6 -11 -18 -7 -35 8 -33 26 -34 26 -1 0 14 5 25 11
25 5 0 7 5 4 10 -8 12 -16 12 -34 1z"/>
<path d="M3662 2988 c-19 -19 -16 -117 4 -125 17 -6 65 25 72 48 2 8 -4 4 -13
-9 -25 -34 -59 -26 -63 15 -5 46 14 76 44 70 13 -2 21 0 18 4 -8 13 -48 11
-62 -3z"/>
<path d="M3685 2969 c-4 -6 -5 -12 -2 -15 2 -3 7 2 10 11 7 17 1 20 -8 4z"/>
<path d="M3670 2926 c0 -8 4 -17 9 -20 5 -4 7 3 4 14 -6 23 -13 26 -13 6z"/>
<path d="M3938 2823 c-19 -5 -25 -57 -10 -81 9 -14 72 -13 72 1 0 5 -12 6 -27
3 -29 -8 -43 5 -43 41 0 16 8 25 26 29 29 8 40 -1 47 -36 3 -17 5 -13 4 10 -2
30 -6 35 -27 37 -14 0 -33 -1 -42 -4z"/>
<path d="M4050 2785 c0 -36 3 -45 18 -44 10 0 12 3 5 6 -7 2 -13 21 -13 40 0
32 2 35 25 31 14 -3 25 -1 25 3 0 5 -13 9 -30 9 -29 0 -30 -2 -30 -45z"/>
<path d="M3813 2813 c-8 -3 -13 -24 -13 -54 0 -47 1 -49 29 -49 30 0 41 14 41
55 0 49 -18 64 -57 48z m47 -47 c0 -22 -6 -36 -16 -40 -24 -9 -34 2 -34 40 0
30 3 34 25 34 22 0 25 -4 25 -34z"/>
<path d="M3718 2802 c-26 -3 -28 -6 -28 -53 l0 -50 33 3 c30 3 32 5 35 47 4
50 -2 58 -40 53z m26 -28 c13 -35 7 -54 -19 -54 -22 0 -25 4 -25 35 0 28 4 35
19 35 10 0 22 -7 25 -16z"/>
<path d="M4390 2884 c0 -14 4 -23 10 -19 6 3 10 15 10 26 0 10 -4 19 -10 19
-5 0 -10 -12 -10 -26z"/>
<path d="M1933 2857 c-19 -11 -20 -14 -8 -30 15 -21 55 -15 55 7 0 24 -23 35
-47 23z m27 -17 c0 -5 -4 -10 -10 -10 -5 0 -10 5 -10 10 0 6 5 10 10 10 6 0
10 -4 10 -10z"/>
<path d="M1800 2536 c0 -16 16 -16 45 2 18 10 17 11 -12 12 -22 0 -33 -5 -33
-14z"/>
<path d="M1649 2503 c-10 -11 -11 -17 -3 -20 14 -5 6 -43 -8 -43 -6 0 -8 7 -4
15 4 11 -2 15 -24 15 -26 0 -28 -2 -21 -22 10 -27 45 -35 65 -15 11 11 21 87
11 87 -1 0 -9 -7 -16 -17z"/>
<path d="M1510 2496 c0 -9 30 -14 35 -6 4 6 -3 10 -14 10 -12 0 -21 -2 -21 -4z"/>
<path d="M1696 2485 c-20 -15 -20 -15 1 -15 11 0 25 -10 31 -22 l11 -23 0 22
c1 25 -8 53 -18 53 -3 0 -15 -7 -25 -15z"/>
<path d="M1760 2474 c-13 -32 -12 -37 0 -29 6 3 10 15 10 27 0 14 5 18 15 14
8 -3 15 -1 15 4 0 21 -31 9 -40 -16z"/>
<path d="M1836 2483 c-6 -14 -5 -15 5 -6 7 7 10 15 7 18 -3 3 -9 -2 -12 -12z"/>
<path d="M1506 2467 c3 -10 9 -15 12 -12 3 3 0 11 -7 18 -10 9 -11 8 -5 -6z"/>
<path d="M1480 2430 c0 -5 5 -10 11 -10 5 0 7 5 4 10 -3 6 -8 10 -11 10 -2 0
-4 -4 -4 -10z"/>
<path d="M1510 2430 c0 -13 18 -22 24 -11 3 5 -1 11 -9 15 -8 3 -15 1 -15 -4z"/>
<path d="M1447 2233 c-4 -3 -7 -11 -7 -17 0 -6 5 -5 12 2 6 6 9 14 7 17 -3 3
-9 2 -12 -2z"/>
<path d="M1886 2114 c-4 -20 -5 -38 -2 -41 2 -3 8 11 12 31 3 21 4 39 1 42 -2
3 -8 -11 -11 -32z"/>
<path d="M2645 2070 l-40 -7 43 -2 c23 0 42 4 42 9 0 6 -1 9 -2 9 -2 -1 -21
-5 -43 -9z"/>
<path d="M2568 2053 c6 -2 18 -2 25 0 6 3 1 5 -13 5 -14 0 -19 -2 -12 -5z"/>
<path d="M2488 2013 c7 -3 16 -2 19 1 4 3 -2 6 -13 5 -11 0 -14 -3 -6 -6z"/>
<path d="M2668 1733 c7 -3 16 -2 19 1 4 3 -2 6 -13 5 -11 0 -14 -3 -6 -6z"/>
<path d="M2781 1654 c0 -11 3 -14 6 -6 3 7 2 16 -1 19 -3 4 -6 -2 -5 -13z"/>
<path d="M2836 1646 c10 -8 21 -12 24 -10 5 6 -21 24 -34 24 -6 0 -1 -6 10
-14z"/>
<path d="M2780 1600 c-8 -5 -12 -11 -9 -14 3 -3 14 1 25 9 21 16 8 20 -16 5z"/>
<path d="M2885 1581 c-3 -5 -1 -12 5 -16 5 -3 10 1 10 9 0 18 -6 21 -15 7z"/>
<path d="M2740 1519 c0 -5 5 -7 10 -4 6 3 10 8 10 11 0 2 -4 4 -10 4 -5 0 -10
-5 -10 -11z"/>
<path d="M3025 1430 c3 -5 8 -10 11 -10 2 0 4 5 4 10 0 6 -5 10 -11 10 -5 0
-7 -4 -4 -10z"/>
<path d="M3670 889 c0 -5 5 -7 10 -4 6 3 10 8 10 11 0 2 -4 4 -10 4 -5 0 -10
-5 -10 -11z"/>
<path d="M4083 2613 c9 -2 25 -2 35 0 9 3 1 5 -18 5 -19 0 -27 -2 -17 -5z"/>
<path d="M3935 2463 c11 -3 23 -10 26 -15 3 -5 9 -3 12 6 5 13 0 16 -26 15
-21 -1 -25 -3 -12 -6z"/>
<path d="M3878 2453 c7 -3 16 -2 19 1 4 3 -2 6 -13 5 -11 0 -14 -3 -6 -6z"/>
<path d="M3951 2224 c0 -11 3 -14 6 -6 3 7 2 16 -1 19 -3 4 -6 -2 -5 -13z"/>
<path d="M1120 1999 c0 -5 5 -7 10 -4 6 3 10 8 10 11 0 2 -4 4 -10 4 -5 0 -10
-5 -10 -11z"/>
<path d="M1378 1989 c-3 -9 -2 -22 2 -30 13 -19 18 -8 10 21 -4 19 -7 21 -12
9z"/>
<path d="M1440 1970 c0 -5 5 -10 10 -10 6 0 10 5 10 10 0 6 -4 10 -10 10 -5 0
-10 -4 -10 -10z"/>
<path d="M1237 1963 c-4 -3 -7 -11 -7 -17 0 -6 5 -5 12 2 6 6 9 14 7 17 -3 3
-9 2 -12 -2z"/>
<path d="M1501 1954 c0 -11 3 -14 6 -6 3 7 2 16 -1 19 -3 4 -6 -2 -5 -13z"/>
<path d="M1861 1954 c0 -11 3 -14 6 -6 3 7 2 16 -1 19 -3 4 -6 -2 -5 -13z"/>
<path d="M1420 1935 c0 -8 7 -15 16 -15 14 0 14 3 4 15 -7 8 -14 15 -16 15 -2
0 -4 -7 -4 -15z"/>
<path d="M1297 1913 c-4 -3 -7 -11 -7 -17 0 -6 5 -5 12 2 6 6 9 14 7 17 -3 3
-9 2 -12 -2z"/>
<path d="M1375 1910 c-3 -5 1 -10 10 -10 9 0 13 5 10 10 -3 6 -8 10 -10 10 -2
0 -7 -4 -10 -10z"/>
<path d="M133 1706 c-25 -12 -32 -29 -8 -20 9 4 15 0 16 -7 0 -8 5 -3 10 10
11 29 10 30 -18 17z"/>
<path d="M490 1694 c0 -9 -5 -12 -12 -8 -10 5 -10 4 -1 -6 6 -7 16 -9 22 -6
14 9 14 36 1 36 -5 0 -10 -7 -10 -16z"/>
<path d="M515 1669 c-4 -6 -5 -12 -2 -15 2 -3 7 2 10 11 7 17 1 20 -8 4z"/>
<path d="M575 1659 c-4 -6 -5 -12 -2 -15 2 -3 7 2 10 11 7 17 1 20 -8 4z"/>
<path d="M610 1660 c0 -5 5 -10 11 -10 5 0 7 5 4 10 -3 6 -8 10 -11 10 -2 0
-4 -4 -4 -10z"/>
<path d="M20 1650 c0 -5 5 -10 10 -10 6 0 10 5 10 10 0 6 -4 10 -10 10 -5 0
-10 -4 -10 -10z"/>
<path d="M515 1620 c-3 -5 -1 -10 4 -10 6 0 11 5 11 10 0 6 -2 10 -4 10 -3 0
-8 -4 -11 -10z"/>
<path d="M370 1599 c0 -5 5 -7 10 -4 6 3 10 8 10 11 0 2 -4 4 -10 4 -5 0 -10
-5 -10 -11z"/>
<path d="M5655 1570 c-3 -5 -12 -7 -20 -3 -11 4 -15 -3 -16 -28 l-1 -34 -8 30
c-6 27 -8 28 -15 10 -5 -11 -16 -25 -24 -32 -11 -9 -12 -12 -3 -13 8 0 6 -7
-6 -21 -13 -13 -18 -28 -14 -42 5 -20 6 -20 13 -1 4 10 8 13 8 6 1 -7 -4 -22
-9 -33 -9 -15 -15 -17 -30 -9 -16 8 -18 8 -14 -4 7 -19 44 -28 44 -10 0 9 6
11 18 7 23 -9 41 -34 35 -50 -3 -7 0 -13 6 -13 19 0 24 29 10 47 -12 14 -11
15 9 9 17 -6 21 -4 16 8 -3 9 -10 13 -15 10 -5 -3 -6 2 -3 10 8 21 -5 20 -28
-1 -10 -9 -18 -11 -18 -5 0 15 38 35 50 27 16 -10 70 -15 69 -7 -4 23 3 42 14
40 7 -2 11 6 10 17 -1 11 4 23 10 27 9 6 9 8 0 8 -7 0 -13 10 -13 23 0 22 1
22 18 2 9 -11 16 -18 15 -16 -2 2 2 10 8 18 12 14 14 13 -49 19 -18 1 -40 5
-47 8 -8 3 -17 1 -20 -4z m41 -47 c-10 -10 -19 5 -10 18 6 11 8 11 12 0 2 -7
1 -15 -2 -18z m-26 -3 c0 -5 -4 -10 -10 -10 -5 0 -10 5 -10 10 0 6 5 10 10 10
6 0 10 -4 10 -10z"/>
<path d="M5796 1543 c-6 -14 -5 -15 5 -6 7 7 10 15 7 18 -3 3 -9 -2 -12 -12z"/>
<path d="M5381 1534 c0 -11 3 -14 6 -6 3 7 2 16 -1 19 -3 4 -6 -2 -5 -13z"/>
<path d="M195 1530 c-3 -6 1 -7 9 -4 18 7 21 14 7 14 -6 0 -13 -4 -16 -10z"/>
<path d="M5438 1533 c-31 -5 -31 -5 -22 -27 8 -20 24 -21 24 -1 0 8 5 15 11
15 5 0 7 -4 4 -10 -3 -5 0 -10 7 -10 8 0 14 9 14 20 0 11 -3 19 -6 19 -3 -1
-17 -4 -32 -6z"/>
<path d="M5526 1494 c-8 -22 1 -31 16 -16 9 9 9 15 1 23 -7 7 -12 5 -17 -7z"/>
<path d="M6159 1483 c-6 -15 -16 -31 -22 -36 -8 -6 -6 -7 6 -3 9 3 17 4 17 3
0 -1 -4 -17 -10 -35 -8 -29 -7 -32 5 -22 8 7 15 19 15 28 0 11 5 10 19 -6 24
-28 31 -28 31 3 0 15 6 25 14 25 8 0 16 6 19 14 7 17 -34 31 -44 15 -3 -6 -11
-4 -18 5 -7 8 -10 20 -6 26 3 5 1 10 -5 10 -6 0 -15 -12 -21 -27z"/>
<path d="M6380 1486 c0 -9 5 -16 10 -16 6 0 10 4 10 9 0 6 -4 13 -10 16 -5 3
-10 -1 -10 -9z"/>
<path d="M5770 1470 c0 -13 18 -22 24 -11 3 5 -1 11 -9 15 -8 3 -15 1 -15 -4z"/>
<path d="M6354 1455 c4 -11 -1 -14 -22 -11 -15 2 -35 7 -44 11 -14 5 -18 2
-18 -15 0 -11 4 -19 9 -15 5 3 13 0 17 -6 5 -8 -3 -10 -25 -7 -23 3 -31 1 -27
-8 3 -7 1 -14 -4 -16 -6 -2 -3 -15 5 -30 13 -26 12 -28 -5 -28 -10 0 -22 -6
-27 -12 -12 -21 -12 -102 1 -111 8 -6 8 -10 -2 -14 -10 -4 -9 -8 5 -19 23 -17
34 -18 28 -1 -7 17 54 43 73 30 9 -5 18 -16 21 -24 2 -8 -3 -7 -14 5 -12 12
-21 14 -23 7 -4 -13 16 -34 42 -44 14 -6 17 -13 12 -33 -8 -30 8 -54 35 -54
11 0 19 -4 19 -9 0 -13 99 -61 114 -55 25 10 86 10 89 0 2 -5 30 -9 63 -9 41
1 65 -4 77 -15 15 -13 20 -14 26 -3 6 10 14 10 28 3 11 -6 33 -10 50 -10 24 1
30 5 26 17 -3 10 -2 12 4 6 15 -18 97 -35 105 -22 6 9 8 9 8 1 0 -16 41 -25
56 -13 8 6 15 4 24 -6 16 -20 44 -20 36 0 -7 19 4 19 30 0 12 -8 23 -12 26
-10 2 2 26 -2 53 -10 92 -28 85 -47 85 225 0 185 -3 240 -12 242 -7 0 -24 2
-38 4 -14 1 -51 6 -82 11 -31 5 -57 7 -56 4 2 -19 -4 -24 -11 -12 -7 11 -33
15 -105 15 -53 1 -96 -2 -96 -6 0 -4 -7 -5 -15 -2 -10 4 -13 2 -10 -7 4 -11
-8 -15 -46 -17 -38 -2 -49 0 -43 9 5 9 1 11 -14 7 -16 -5 -22 -2 -22 10 0 11
-3 13 -8 5 -11 -17 -61 -11 -68 10 -3 9 -10 17 -15 17 -6 0 -8 -4 -5 -9 6 -10
-51 -24 -65 -16 -4 3 -17 -3 -28 -14 -22 -22 -47 -19 -67 7 -6 8 -16 12 -22 8
-6 -3 -13 -2 -17 4 -4 6 -10 8 -15 5 -4 -3 -10 3 -13 14 -3 14 -11 17 -36 13
-19 -2 -31 0 -31 7 0 6 -5 11 -11 11 -6 0 -9 -7 -5 -15z"/>
<path d="M5733 1453 c-15 -5 -17 -23 -4 -23 5 0 11 7 15 15 3 8 4 15 3 14 -1
0 -8 -3 -14 -6z"/>
<path d="M5365 1410 c-4 -6 -11 -7 -17 -4 -5 4 -4 -4 3 -17 11 -20 14 -21 17
-6 2 9 8 17 13 17 5 0 9 5 9 10 0 13 -17 13 -25 0z"/>
<path d="M5670 1411 c0 -6 5 -13 10 -16 6 -3 10 1 10 9 0 9 -4 16 -10 16 -5 0
-10 -4 -10 -9z"/>
<path d="M5420 1372 c0 -5 7 -9 15 -9 8 0 15 4 15 9 0 4 -7 8 -15 8 -8 0 -15
-4 -15 -8z"/>
<path d="M5505 1361 c-3 -5 -1 -12 5 -16 5 -3 10 1 10 9 0 18 -6 21 -15 7z"/>
<path d="M5360 1349 c0 -5 5 -7 10 -4 6 3 10 8 10 11 0 2 -4 4 -10 4 -5 0 -10
-5 -10 -11z"/>
<path d="M5581 1344 c0 -11 3 -14 6 -6 3 7 2 16 -1 19 -3 4 -6 -2 -5 -13z"/>
<path d="M5430 1341 c0 -5 -8 -8 -17 -7 -10 0 -19 -7 -21 -19 -3 -17 -1 -18 8
-5 9 11 13 12 17 3 3 -10 8 -10 19 1 16 17 19 36 4 36 -5 0 -10 -4 -10 -9z"/>
<path d="M5327 1323 c-4 -3 -7 -11 -7 -17 0 -6 5 -5 12 2 6 6 9 14 7 17 -3 3
-9 2 -12 -2z"/>
<path d="M5486 1315 c-3 -9 -6 -22 -5 -28 0 -7 5 -1 10 12 5 13 8 26 5 28 -2
2 -6 -3 -10 -12z"/>
<path d="M5517 1283 c7 -18 43 -16 43 1 0 8 -9 13 -24 12 -14 0 -22 -6 -19
-13z"/>
<path d="M5375 1281 c-3 -6 -12 -8 -20 -4 -11 4 -15 -2 -15 -20 0 -30 18 -45
31 -26 6 10 9 11 9 2 0 -7 5 -13 10 -13 13 0 13 57 1 65 -5 3 -12 1 -16 -4z"/>
<path d="M5316 1261 c-4 -7 -5 -15 -2 -18 9 -9 19 4 14 18 -4 11 -6 11 -12 0z"/>
<path d="M5465 1260 c3 -4 -2 -10 -10 -14 -9 -3 -12 -12 -8 -22 3 -9 0 -20 -8
-25 -11 -7 -11 -9 4 -9 15 0 22 11 18 33 0 4 8 7 19 7 26 0 26 26 0 33 -11 3
-18 2 -15 -3z"/>
<path d="M2590 1095 c0 -5 5 -17 10 -25 5 -8 10 -10 10 -5 0 6 -5 17 -10 25
-5 8 -10 11 -10 5z"/>
<path d="M2621 1074 c0 -11 3 -14 6 -6 3 7 2 16 -1 19 -3 4 -6 -2 -5 -13z"/>
<path d="M6736 224 c-9 -22 3 -32 14 -14 12 19 12 30 1 30 -5 0 -12 -7 -15
-16z"/>
<path d="M6573 141 c-7 -10 -9 -22 -6 -25 13 -13 28 -5 40 19 9 21 9 25 -6 25
-9 0 -22 -9 -28 -19z"/>
<path d="M6546 102 c-3 -6 -1 -14 5 -17 15 -10 25 3 12 16 -7 7 -13 7 -17 1z"/>
<path d="M6470 40 c20 -13 40 -13 40 0 0 6 -12 10 -27 10 -22 0 -25 -2 -13
-10z"/>
</g>
</svg>
